<svg xmlns="http://www.w3.org/2000/svg" xmlns:xlink="http://www.w3.org/1999/xlink" width="1080" zoomAndPan="magnify" viewBox="0 0 810 809.999993" height="1080" preserveAspectRatio="xMidYMid meet" version="1.0"><path fill="#a49180" d="M 281.226562 714.734375 C 280.414062 714.734375 279.605469 714.25 279.28125 713.441406 C 278.796875 712.304688 279.445312 711.011719 280.414062 710.6875 C 281.0625 710.363281 342.585938 685.757812 413.5 667.625 C 509.347656 643.34375 575.886719 642.207031 611.667969 664.0625 C 612.640625 664.710938 612.964844 666.007812 612.316406 666.976562 C 611.667969 667.949219 610.375 668.273438 609.402344 667.625 C 526.507812 616.628906 284.464844 713.441406 282.035156 714.410156 C 281.710938 714.734375 281.386719 714.734375 281.226562 714.734375 Z M 281.226562 714.734375 " fill-opacity="1" fill-rule="nonzero"/><path fill="#deb867" d="M 411.558594 219.683594 C 411.558594 219.683594 282.519531 152.175781 337.890625 46.625 C 443.9375 103.285156 411.558594 219.683594 411.558594 219.683594 Z M 411.558594 219.683594 " fill-opacity="1" fill-rule="nonzero"/><path fill="#a49180" d="M 411.558594 221.785156 C 411.234375 221.785156 410.910156 221.625 410.585938 221.460938 C 409.9375 221.140625 344.527344 186.332031 326.558594 128.699219 C 318.140625 101.503906 321.214844 73.496094 335.949219 45.492188 C 336.273438 45.003906 336.757812 44.519531 337.242188 44.359375 C 337.890625 44.195312 338.378906 44.195312 338.863281 44.519531 C 445.234375 101.34375 413.984375 218.871094 413.660156 220.167969 C 413.5 220.816406 413.015625 221.300781 412.367188 221.625 C 412.203125 221.785156 411.882812 221.785156 411.558594 221.785156 Z M 338.699219 49.539062 C 325.425781 75.925781 322.671875 102.152344 330.605469 127.566406 C 346.148438 177.265625 398.117188 209.484375 410.101562 216.445312 C 413.984375 198.796875 430.984375 100.371094 338.699219 49.539062 Z M 338.699219 49.539062 " fill-opacity="1" fill-rule="nonzero"/><path fill="#deb867" d="M 408.480469 215.472656 C 408.480469 215.472656 459.804688 88.875 567.792969 139.0625 C 516.308594 247.851562 408.480469 215.472656 408.480469 215.472656 Z M 408.480469 215.472656 " fill-opacity="1" fill-rule="nonzero"/><path fill="#a49180" d="M 444.910156 222.109375 C 423.539062 222.109375 408.804688 217.738281 407.996094 217.414062 C 407.347656 217.253906 406.863281 216.769531 406.699219 216.28125 C 406.375 215.796875 406.375 215.148438 406.699219 214.5 C 407.023438 213.855469 432.441406 152.011719 484.414062 131.613281 C 510.640625 121.253906 539.136719 123.035156 569.089844 136.957031 C 569.574219 137.28125 570.058594 137.605469 570.222656 138.253906 C 570.382812 138.738281 570.382812 139.386719 570.222656 139.871094 C 543.183594 196.855469 500.605469 214.988281 469.519531 220.003906 C 460.453125 221.625 452.355469 222.109375 444.910156 222.109375 Z M 411.558594 214.015625 C 418.84375 215.796875 441.671875 220.328125 468.707031 215.957031 C 511.613281 208.835938 543.992188 183.417969 565.039062 140.195312 C 536.871094 127.566406 510.316406 126.109375 485.871094 135.824219 C 441.183594 153.308594 416.574219 202.84375 411.558594 214.015625 Z M 411.558594 214.015625 " fill-opacity="1" fill-rule="nonzero"/><path fill="#a49180" d="M 412.367188 643.828125 C 412.042969 643.828125 411.71875 643.828125 411.558594 643.664062 C 410.421875 643.179688 409.9375 641.886719 410.421875 640.753906 C 411.070312 639.296875 473.242188 489.871094 414.148438 420.097656 C 353.273438 348.382812 407.023438 219.195312 407.507812 217.902344 C 407.996094 216.769531 409.289062 216.28125 410.421875 216.769531 C 411.558594 217.253906 412.042969 218.546875 411.558594 219.683594 C 411.070312 220.976562 358.292969 347.734375 417.546875 417.347656 C 442.804688 447.132812 450.25 495.539062 439.082031 557.378906 C 430.660156 603.839844 414.632812 642.046875 414.472656 642.53125 C 413.984375 643.34375 413.175781 643.828125 412.367188 643.828125 Z M 412.367188 643.828125 " fill-opacity="1" fill-rule="nonzero"/><path fill="#efb5b4" d="M 385.816406 311.308594 C 385.816406 311.308594 359.101562 218.710938 268.597656 225.347656 C 265.359375 309.53125 385.816406 311.308594 385.816406 311.308594 Z M 385.816406 311.308594 " fill-opacity="1" fill-rule="nonzero"/><path fill="#a49180" d="M 385.816406 313.414062 C 383.0625 313.414062 318.464844 311.957031 285.273438 276.988281 C 271.996094 263.066406 265.683594 245.582031 266.492188 225.1875 C 266.492188 224.054688 267.464844 223.242188 268.433594 223.082031 C 359.585938 216.121094 387.59375 309.691406 387.757812 310.5 C 387.917969 311.148438 387.757812 311.796875 387.433594 312.445312 C 387.109375 313.089844 386.460938 313.414062 385.816406 313.414062 Z M 270.703125 227.289062 C 270.378906 245.746094 276.367188 261.449219 288.347656 274.078125 C 316.195312 303.539062 369.460938 308.234375 382.738281 308.882812 C 377.234375 293.664062 347.605469 222.757812 270.703125 227.289062 Z M 270.703125 227.289062 " fill-opacity="1" fill-rule="nonzero"/><path fill="#efb5b4" d="M 391.320312 360.199219 C 391.320312 360.199219 435.03125 275.210938 522.136719 296.902344 C 509.183594 378.65625 391.320312 360.199219 391.320312 360.199219 Z M 391.320312 360.199219 " fill-opacity="1" fill-rule="nonzero"/><path fill="#a49180" d="M 418.195312 364.085938 C 402.492188 364.085938 391.480469 362.46875 391.15625 362.304688 C 390.507812 362.144531 389.863281 361.820312 389.539062 361.171875 C 389.214844 360.523438 389.214844 359.875 389.539062 359.230469 C 390.023438 358.417969 435.03125 272.941406 522.785156 294.960938 C 523.917969 295.285156 524.566406 296.253906 524.402344 297.386719 C 515.175781 355.183594 454.460938 364.085938 418.195312 364.085938 Z M 394.882812 358.417969 C 413.339844 360.523438 507.078125 367.648438 519.707031 298.519531 C 445.558594 281.359375 403.300781 344.335938 394.882812 358.417969 Z M 394.882812 358.417969 " fill-opacity="1" fill-rule="nonzero"/><path fill="#deb867" d="M 164.492188 300.300781 C 164.492188 300.300781 20.5625 322.804688 2.265625 204.949219 C 121.425781 187.464844 164.492188 300.300781 164.492188 300.300781 Z M 164.492188 300.300781 " fill-opacity="1" fill-rule="nonzero"/><path fill="#a49180" d="M 137.617188 304.027344 C 111.714844 304.027344 72.207031 299.816406 42.09375 277.800781 C 19.105469 260.964844 5.019531 236.519531 0.160156 205.273438 C 0 204.625 0.160156 204.140625 0.648438 203.65625 C 0.972656 203.167969 1.457031 202.84375 2.105469 202.84375 C 121.75 185.199219 166.113281 298.359375 166.597656 299.492188 C 166.761719 300.140625 166.761719 300.789062 166.4375 301.273438 C 166.113281 301.921875 165.464844 302.246094 164.816406 302.40625 C 164.492188 302.40625 153.644531 304.027344 137.617188 304.027344 Z M 4.855469 206.730469 C 9.875 235.871094 23.152344 258.535156 44.683594 274.238281 C 86.78125 304.996094 147.816406 299.976562 161.417969 298.359375 C 154.132812 282.007812 109.445312 192.808594 4.855469 206.730469 Z M 4.855469 206.730469 " fill-opacity="1" fill-rule="nonzero"/><path fill="#deb867" d="M 159.636719 298.683594 C 159.636719 298.683594 125.476562 166.421875 242.367188 142.625 C 265.519531 260.640625 159.636719 298.683594 159.636719 298.683594 Z M 159.636719 298.683594 " fill-opacity="1" fill-rule="nonzero"/><path fill="#a49180" d="M 159.636719 300.949219 C 159.3125 300.949219 158.988281 300.789062 158.664062 300.625 C 158.179688 300.300781 157.695312 299.816406 157.53125 299.332031 C 157.371094 298.683594 141.179688 233.765625 170.644531 186.496094 C 185.539062 162.535156 209.503906 147.15625 241.882812 140.519531 C 242.53125 140.355469 243.015625 140.519531 243.5 140.84375 C 243.988281 141.167969 244.3125 141.652344 244.472656 142.300781 C 256.617188 204.140625 233.140625 243.964844 211.285156 266.628906 C 187.644531 290.914062 161.578125 300.625 160.445312 300.949219 C 160.121094 300.789062 159.796875 300.949219 159.636719 300.949219 Z M 240.585938 145.214844 C 210.472656 151.851562 188.292969 166.421875 174.207031 188.761719 C 148.789062 229.394531 158.503906 283.789062 161.09375 295.769531 C 168.054688 292.855469 189.101562 282.980469 208.207031 263.230469 C 238.484375 232.148438 249.332031 192.324219 240.585938 145.214844 Z M 240.585938 145.214844 " fill-opacity="1" fill-rule="nonzero"/><path fill="#a49180" d="M 390.023438 661.148438 C 389.863281 661.148438 389.863281 661.148438 389.699219 661.148438 C 388.566406 660.988281 387.757812 659.855469 387.917969 658.722656 C 388.082031 657.265625 408.320312 515.449219 288.996094 472.875 C 200.597656 441.304688 160.609375 303.054688 160.285156 301.597656 C 159.960938 300.464844 160.609375 299.167969 161.742188 298.84375 C 163.035156 298.519531 164.167969 299.167969 164.492188 300.300781 C 164.816406 301.597656 204.320312 437.90625 290.617188 468.664062 C 413.339844 512.375 392.613281 657.75 392.289062 659.207031 C 392.128906 660.339844 391.15625 661.148438 390.023438 661.148438 Z M 390.023438 661.148438 " fill-opacity="1" fill-rule="nonzero"/><path fill="#efb5b4" d="M 217.113281 412.167969 C 217.113281 412.167969 128.226562 377.199219 77.066406 450.859375 C 140.695312 503.796875 217.113281 412.167969 217.113281 412.167969 Z M 217.113281 412.167969 " fill-opacity="1" fill-rule="nonzero"/><path fill="#a49180" d="M 120.457031 469.3125 C 105.5625 469.3125 90.34375 464.617188 75.769531 452.476562 C 74.960938 451.828125 74.800781 450.535156 75.445312 449.5625 C 126.933594 375.257812 217.113281 409.738281 218.082031 410.0625 C 218.730469 410.386719 219.214844 410.871094 219.378906 411.519531 C 219.539062 412.167969 219.378906 412.976562 218.894531 413.460938 C 218.082031 414.269531 171.457031 469.3125 120.457031 469.3125 Z M 79.980469 450.535156 C 135.1875 494.082031 200.757812 426.898438 213.226562 413.136719 C 197.683594 407.957031 124.339844 388.53125 79.980469 450.535156 Z M 79.980469 450.535156 " fill-opacity="1" fill-rule="nonzero"/><path fill="#efb5b4" d="M 245.28125 444.707031 C 245.28125 444.707031 229.738281 350.488281 312.632812 316.003906 C 351.003906 389.179688 245.28125 444.707031 245.28125 444.707031 Z M 245.28125 444.707031 " fill-opacity="1" fill-rule="nonzero"/><path fill="#a49180" d="M 245.28125 446.808594 C 244.960938 446.808594 244.636719 446.808594 244.3125 446.648438 C 243.664062 446.324219 243.179688 445.675781 243.179688 445.03125 C 243.015625 444.058594 228.28125 348.542969 311.824219 313.902344 C 312.796875 313.414062 314.089844 313.902344 314.578125 314.871094 C 353.433594 389.339844 247.386719 446 246.417969 446.488281 C 246.09375 446.648438 245.605469 446.808594 245.28125 446.808594 Z M 311.664062 318.757812 C 241.722656 349.191406 245.445312 424.957031 247.0625 441.304688 C 263.09375 431.917969 342.585938 381.730469 311.664062 318.757812 Z M 311.664062 318.757812 " fill-opacity="1" fill-rule="nonzero"/><path fill="#a49180" d="M 333.519531 696.28125 C 332.710938 696.28125 331.902344 695.792969 331.578125 695.144531 C 331.089844 694.011719 331.414062 692.71875 332.546875 692.230469 C 334.003906 691.585938 472.917969 620.191406 492.023438 530.507812 C 516.632812 415.242188 622.191406 395.007812 623.164062 394.84375 C 624.460938 394.519531 625.429688 395.492188 625.753906 396.625 C 626.078125 397.757812 625.105469 398.890625 623.972656 399.214844 C 623.003906 399.378906 520.195312 419.128906 496.230469 531.476562 C 476.640625 623.105469 340.320312 693.367188 334.492188 696.28125 C 334.167969 696.117188 333.84375 696.28125 333.519531 696.28125 Z M 333.519531 696.28125 " fill-opacity="1" fill-rule="nonzero"/><path fill="#deb867" d="M 624.621094 398.890625 C 624.621094 398.890625 583.496094 259.019531 697.964844 225.671875 C 730.828125 341.421875 624.621094 398.890625 624.621094 398.890625 Z M 624.621094 398.890625 " fill-opacity="1" fill-rule="nonzero"/><path fill="#a49180" d="M 624.621094 400.996094 C 624.296875 400.996094 624.136719 400.996094 623.8125 400.835938 C 623.164062 400.511719 622.679688 400.023438 622.515625 399.378906 C 622.355469 398.730469 601.953125 327.5 630.933594 274.5625 C 644.535156 249.632812 666.878906 232.472656 697.316406 223.566406 C 697.964844 223.40625 698.449219 223.40625 698.933594 223.730469 C 699.421875 224.054688 699.746094 224.539062 699.90625 225.023438 C 732.773438 341.097656 626.5625 400.1875 625.429688 400.671875 C 625.429688 400.996094 625.105469 400.996094 624.621094 400.996094 Z M 696.507812 228.425781 C 668.335938 237.164062 647.449219 253.355469 634.820312 276.667969 C 609.886719 322.320312 622.679688 382.21875 626.078125 395.492188 C 641.460938 386.101562 724.03125 329.925781 696.507812 228.425781 Z M 696.507812 228.425781 " fill-opacity="1" fill-rule="nonzero"/><path fill="#deb867" d="M 625.59375 393.875 C 625.59375 393.875 752.363281 342.878906 791.21875 455.550781 C 677.078125 493.757812 625.59375 393.875 625.59375 393.875 Z M 625.59375 393.875 " fill-opacity="1" fill-rule="nonzero"/><path fill="#a49180" d="M 741.191406 466.238281 C 707.355469 466.238281 681.773438 453.609375 664.289062 440.660156 C 637.085938 420.421875 624.136719 395.816406 623.648438 394.683594 C 623.324219 394.195312 623.324219 393.550781 623.488281 392.902344 C 623.648438 392.253906 624.136719 391.929688 624.78125 391.605469 C 625.429688 391.28125 687.601562 366.835938 738.277344 389.824219 C 763.859375 401.480469 782.476562 423.335938 793.160156 454.417969 C 793.324219 454.90625 793.324219 455.550781 793 456.039062 C 792.675781 456.523438 792.351562 457.007812 791.703125 457.171875 C 773.246094 463.808594 756.410156 466.238281 741.191406 466.238281 Z M 628.667969 395.007812 C 632.390625 401.480469 645.019531 421.070312 667.039062 437.421875 C 701.847656 463.324219 742.648438 468.828125 788.304688 454.09375 C 777.78125 425.117188 760.457031 405.042969 736.496094 394.035156 C 692.945312 374.121094 640.324219 390.796875 628.667969 395.007812 Z M 628.667969 395.007812 " fill-opacity="1" fill-rule="nonzero"/><path fill="#efb5b4" d="M 536.871094 442.761719 C 536.871094 442.761719 609.886719 379.789062 566.011719 300.464844 C 488.300781 332.679688 536.871094 442.761719 536.871094 442.761719 Z M 536.871094 442.761719 " fill-opacity="1" fill-rule="nonzero"/><path fill="#a49180" d="M 536.871094 444.867188 C 536.707031 444.867188 536.546875 444.867188 536.382812 444.867188 C 535.738281 444.707031 535.089844 444.21875 534.925781 443.574219 C 533.792969 441.144531 508.050781 381.730469 526.023438 337.050781 C 533.144531 319.242188 546.421875 306.128906 565.203125 298.359375 C 566.175781 297.875 567.46875 298.359375 567.957031 299.332031 C 612.15625 379.304688 538.976562 443.734375 538.328125 444.382812 C 537.839844 444.707031 537.355469 444.867188 536.871094 444.867188 Z M 565.039062 303.214844 C 548.203125 310.664062 536.382812 322.640625 529.90625 338.667969 C 514.851562 376.390625 532.660156 426.574219 537.515625 439.039062 C 549.335938 427.707031 601.46875 371.371094 565.039062 303.214844 Z M 565.039062 303.214844 " fill-opacity="1" fill-rule="nonzero"/><path fill="#efb5b4" d="M 517.117188 474.65625 C 517.117188 474.65625 608.269531 445.675781 654.25 522.734375 C 587.222656 571.140625 517.117188 474.65625 517.117188 474.65625 Z M 517.117188 474.65625 " fill-opacity="1" fill-rule="nonzero"/><path fill="#a49180" d="M 614.421875 538.4375 C 561.480469 538.4375 515.984375 476.757812 515.5 475.949219 C 515.011719 475.464844 515.011719 474.65625 515.175781 474.007812 C 515.335938 473.359375 515.984375 472.875 516.632812 472.550781 C 517.601562 472.226562 609.886719 444.058594 656.191406 521.601562 C 656.839844 522.574219 656.515625 523.867188 655.542969 524.515625 C 641.78125 534.390625 627.859375 538.4375 614.421875 538.4375 Z M 520.839844 475.789062 C 532.335938 490.359375 593.375 561.914062 651.335938 522.089844 C 611.183594 457.332031 536.707031 471.902344 520.839844 475.789062 Z M 520.839844 475.789062 " fill-opacity="1" fill-rule="nonzero"/><path fill="#efb5b4" d="M 481.335938 656.777344 C 481.335938 656.777344 570.546875 690.9375 558.726562 779.8125 C 475.996094 775.929688 481.335938 656.777344 481.335938 656.777344 Z M 481.335938 656.777344 " fill-opacity="1" fill-rule="nonzero"/><path fill="#a49180" d="M 558.566406 781.917969 C 474.539062 778.03125 479.070312 657.910156 479.070312 656.617188 C 479.070312 655.96875 479.394531 655.320312 480.042969 654.835938 C 480.691406 654.511719 481.335938 654.351562 481.984375 654.675781 C 482.957031 655 572.652344 690.453125 560.667969 779.976562 C 560.667969 781.109375 559.699219 781.917969 558.566406 781.917969 Z M 483.441406 660.015625 C 483.441406 678.632812 486.519531 772.527344 556.785156 777.386719 C 565.6875 701.621094 498.335938 666.816406 483.441406 660.015625 Z M 483.441406 660.015625 " fill-opacity="1" fill-rule="nonzero"/><path fill="#efb5b4" d="M 497.367188 653.542969 C 497.367188 653.542969 592.5625 638 596.613281 547.34375 C 513.394531 534.230469 497.367188 653.542969 497.367188 653.542969 Z M 497.367188 653.542969 " fill-opacity="1" fill-rule="nonzero"/><path fill="#a49180" d="M 497.367188 655.808594 C 496.878906 655.808594 496.230469 655.644531 495.910156 655.160156 C 495.421875 654.675781 495.097656 654.027344 495.261719 653.378906 C 495.585938 650.628906 504.652344 586.679688 543.183594 557.867188 C 558.566406 546.371094 576.699219 542.164062 596.773438 545.398438 C 597.90625 545.5625 598.71875 546.535156 598.554688 547.667969 C 594.507812 638.972656 498.5 655.644531 497.527344 655.808594 C 497.6875 655.808594 497.527344 655.808594 497.367188 655.808594 Z M 584.144531 548.636719 C 569.898438 548.636719 557.109375 552.847656 545.773438 561.265625 C 513.230469 585.546875 502.222656 637.675781 499.957031 650.789062 C 515.824219 647.226562 589.648438 626.34375 594.183594 549.285156 C 590.945312 548.800781 587.546875 548.636719 584.144531 548.636719 Z M 584.144531 548.636719 " fill-opacity="1" fill-rule="nonzero"/><path fill="#deb867" d="M 612.964844 661.472656 C 612.964844 661.472656 749.449219 657.101562 747.183594 776.253906 C 627.050781 773.175781 612.964844 661.472656 612.964844 661.472656 Z M 612.964844 661.472656 " fill-opacity="1" fill-rule="nonzero"/><path fill="#a49180" d="M 747.34375 778.519531 C 684.203125 776.898438 650.527344 745.167969 633.363281 718.945312 C 614.746094 690.613281 611.183594 662.929688 611.019531 661.796875 C 611.019531 661.148438 611.183594 660.503906 611.507812 660.179688 C 611.832031 659.691406 612.480469 659.367188 613.125 659.367188 C 613.773438 659.367188 680.800781 657.75 720.304688 696.765625 C 740.382812 716.515625 750.257812 743.390625 749.609375 776.414062 C 749.609375 777.0625 749.285156 777.546875 748.960938 777.871094 C 748.476562 778.355469 747.828125 778.519531 747.34375 778.519531 Z M 615.554688 663.578125 C 616.851562 670.863281 622.03125 693.6875 636.925781 716.515625 C 660.726562 752.777344 697.152344 772.042969 745.078125 773.984375 C 745.238281 743.226562 735.847656 718.296875 717.066406 699.839844 C 683.066406 666.332031 627.859375 663.738281 615.554688 663.578125 Z M 615.554688 663.578125 " fill-opacity="1" fill-rule="nonzero"/><path fill="#deb867" d="M 610.535156 666.007812 C 610.535156 666.007812 620.089844 520.632812 739.085938 528.5625 C 730.019531 648.523438 610.535156 666.007812 610.535156 666.007812 Z M 610.535156 666.007812 " fill-opacity="1" fill-rule="nonzero"/><path fill="#a49180" d="M 610.535156 668.109375 C 610.050781 668.109375 609.402344 667.949219 609.078125 667.464844 C 608.59375 666.976562 608.269531 666.332031 608.429688 665.683594 C 608.429688 664.875 613.773438 591.050781 659.269531 551.390625 C 680.640625 532.609375 707.515625 524.191406 739.25 526.296875 C 739.894531 526.296875 740.382812 526.621094 740.707031 527.105469 C 741.03125 527.59375 741.191406 528.078125 741.191406 528.726562 C 732.125 649.007812 611.992188 667.949219 610.859375 668.109375 C 610.699219 668.109375 610.535156 668.109375 610.535156 668.109375 Z M 729.695312 530.34375 C 703.144531 530.34375 680.476562 538.4375 662.019531 554.628906 C 622.839844 588.949219 614.421875 649.492188 612.964844 663.253906 C 630.613281 659.691406 727.589844 635.410156 736.65625 530.507812 C 734.230469 530.507812 731.960938 530.34375 729.695312 530.34375 Z M 729.695312 530.34375 " fill-opacity="1" fill-rule="nonzero"/><path fill="#eeddcf" d="M 156.558594 293.503906 C 156.558594 293.503906 173.722656 170.792969 225.046875 168.203125 C 247.226562 211.585938 156.558594 293.503906 156.558594 293.503906 Z M 156.558594 293.503906 " fill-opacity="1" fill-rule="nonzero"/><path fill="#eeddcf" d="M 147.816406 296.253906 C 147.816406 296.253906 70.105469 199.929688 24.609375 223.890625 C 28.007812 272.621094 147.816406 296.253906 147.816406 296.253906 Z M 147.816406 296.253906 " fill-opacity="1" fill-rule="nonzero"/><path fill="#deb867" d="M 163.359375 304.835938 C 163.359375 304.835938 42.582031 231.660156 99.894531 112.835938 C 210.960938 161.886719 163.359375 304.835938 163.359375 304.835938 Z M 163.359375 304.835938 " fill-opacity="1" fill-rule="nonzero"/><path fill="#a49180" d="M 163.359375 306.9375 C 163.035156 306.9375 162.550781 306.777344 162.226562 306.617188 C 160.929688 305.804688 40.3125 231.015625 97.953125 111.863281 C 98.4375 110.894531 99.730469 110.40625 100.867188 110.894531 C 212.417969 160.105469 165.949219 304.1875 165.464844 305.484375 C 165.304688 306.128906 164.816406 306.617188 164.167969 306.777344 C 163.84375 306.9375 163.523438 306.9375 163.359375 306.9375 Z M 100.867188 115.75 C 51.484375 221.140625 145.710938 290.425781 162.066406 301.433594 C 167.730469 281.683594 198.167969 160.429688 100.867188 115.75 Z M 100.867188 115.75 " fill-opacity="1" fill-rule="nonzero"/><path fill="#eeddcf" d="M 154.132812 282.496094 C 154.132812 282.496094 76.902344 186.171875 108.796875 145.859375 C 160.121094 155.574219 154.132812 282.496094 154.132812 282.496094 Z M 154.132812 282.496094 " fill-opacity="1" fill-rule="nonzero"/><path fill="#eeddcf" d="M 418.03125 208.511719 C 418.03125 208.511719 503.679688 121.253906 548.042969 147.15625 C 542.699219 195.722656 418.03125 208.511719 418.03125 208.511719 Z M 418.03125 208.511719 " fill-opacity="1" fill-rule="nonzero"/><path fill="#eeddcf" d="M 409.128906 205.921875 C 409.128906 205.921875 396.984375 82.726562 345.824219 77.867188 C 322.023438 120.445312 409.128906 205.921875 409.128906 205.921875 Z M 409.128906 205.921875 " fill-opacity="1" fill-rule="nonzero"/><path fill="#eeddcf" d="M 630.289062 391.929688 C 630.289062 391.929688 753.980469 396.949219 761.753906 447.621094 C 720.628906 474.007812 630.289062 391.929688 630.289062 391.929688 Z M 630.289062 391.929688 " fill-opacity="1" fill-rule="nonzero"/><path fill="#eeddcf" d="M 626.726562 383.351562 C 626.726562 383.351562 714.964844 296.417969 686.46875 253.679688 C 638.382812 261.933594 626.726562 383.351562 626.726562 383.351562 Z M 626.726562 383.351562 " fill-opacity="1" fill-rule="nonzero"/><path fill="#eeddcf" d="M 621.707031 662.769531 C 621.707031 662.769531 737.46875 706.640625 728.726562 757.3125 C 681.289062 769.289062 621.707031 662.769531 621.707031 662.769531 Z M 621.707031 662.769531 " fill-opacity="1" fill-rule="nonzero"/><path fill="#eeddcf" d="M 620.898438 653.542969 C 620.898438 653.542969 732.125 599.148438 718.6875 549.449219 C 670.441406 542 620.898438 653.542969 620.898438 653.542969 Z M 620.898438 653.542969 " fill-opacity="1" fill-rule="nonzero"/><path fill="#deb867" d="M 407.832031 222.597656 C 407.832031 222.597656 354.242188 91.953125 470.976562 30.597656 C 531.203125 135.984375 407.832031 222.597656 407.832031 222.597656 Z M 407.832031 222.597656 " fill-opacity="1" fill-rule="nonzero"/><path fill="#a49180" d="M 407.832031 224.699219 C 407.671875 224.699219 407.347656 224.699219 407.1875 224.539062 C 406.539062 224.375 406.050781 223.890625 405.730469 223.242188 C 405.242188 221.949219 352.625 90.011719 469.84375 28.492188 C 470.8125 28.007812 472.109375 28.332031 472.757812 29.300781 C 533.144531 135.339844 410.101562 223.40625 408.964844 224.214844 C 408.804688 224.539062 408.320312 224.699219 407.832031 224.699219 Z M 470.164062 33.347656 C 367.84375 88.714844 402.167969 200.417969 408.804688 219.035156 C 425.15625 206.570312 521.8125 127.242188 470.164062 33.347656 Z M 470.164062 33.347656 " fill-opacity="1" fill-rule="nonzero"/><path fill="#eeddcf" d="M 421.917969 197.988281 C 421.917969 197.988281 410.101562 75.117188 458.996094 58.925781 C 496.71875 95.027344 421.917969 197.988281 421.917969 197.988281 Z M 421.917969 197.988281 " fill-opacity="1" fill-rule="nonzero"/><path fill="#eeddcf" d="M 252.730469 425.28125 C 252.730469 425.28125 269.40625 338.992188 301.785156 338.992188 C 322.835938 369.589844 252.730469 425.28125 252.730469 425.28125 Z M 252.730469 425.28125 " fill-opacity="1" fill-rule="nonzero"/><path fill="#eeddcf" d="M 368.003906 301.757812 C 368.003906 301.757812 283.492188 277.636719 286.246094 245.421875 C 318.625 227.128906 368.003906 301.757812 368.003906 301.757812 Z M 368.003906 301.757812 " fill-opacity="1" fill-rule="nonzero"/><path fill="#eeddcf" d="M 413.015625 351.945312 C 413.015625 351.945312 474.859375 289.617188 501.898438 307.75 C 502.222656 344.820312 413.015625 351.945312 413.015625 351.945312 Z M 413.015625 351.945312 " fill-opacity="1" fill-rule="nonzero"/><path fill="#eeddcf" d="M 542.375 420.910156 C 542.375 420.910156 530.230469 335.109375 560.183594 322.320312 C 591.429688 342.230469 542.375 420.910156 542.375 420.910156 Z M 542.375 420.910156 " fill-opacity="1" fill-rule="nonzero"/><path fill="#eeddcf" d="M 542.535156 483.882812 C 542.535156 483.882812 630.289062 484.855469 636.277344 516.746094 C 609.726562 542.972656 542.535156 483.882812 542.535156 483.882812 Z M 542.535156 483.882812 " fill-opacity="1" fill-rule="nonzero"/><path fill="#eeddcf" d="M 511.289062 635.246094 C 511.289062 635.246094 547.554688 555.273438 578.964844 562.722656 C 592.402344 597.367188 511.289062 635.246094 511.289062 635.246094 Z M 511.289062 635.246094 " fill-opacity="1" fill-rule="nonzero"/><path fill="#eeddcf" d="M 495.097656 682.519531 C 495.097656 682.519531 562.449219 738.855469 546.746094 767.347656 C 509.671875 770.910156 495.097656 682.519531 495.097656 682.519531 Z M 495.097656 682.519531 " fill-opacity="1" fill-rule="nonzero"/><path fill="#eeddcf" d="M 190.398438 419.128906 C 190.398438 419.128906 128.550781 471.902344 102.96875 452.152344 C 105.238281 415.082031 190.398438 419.128906 190.398438 419.128906 Z M 190.398438 419.128906 " fill-opacity="1" fill-rule="nonzero"/><path fill="#deb867" d="M 139.238281 239.757812 C 137.457031 239.757812 135.675781 238.621094 135.1875 236.84375 C 134.378906 234.574219 135.675781 231.984375 137.941406 231.175781 C 140.207031 230.367188 142.636719 231.5 143.445312 233.765625 L 143.609375 234.25 C 144.417969 236.519531 143.121094 238.945312 140.855469 239.757812 C 140.207031 239.757812 139.722656 239.757812 139.238281 239.757812 Z M 133.246094 223.082031 C 131.464844 223.082031 129.847656 221.949219 129.199219 220.328125 C 128.390625 218.0625 129.359375 215.3125 131.628906 214.5 C 133.894531 213.691406 136.320312 214.664062 137.132812 216.769531 L 137.292969 217.253906 C 138.101562 219.519531 136.96875 221.949219 134.703125 222.917969 C 134.21875 222.917969 133.730469 223.082031 133.246094 223.082031 Z M 127.253906 206.246094 C 125.476562 206.246094 123.855469 205.113281 123.207031 203.332031 C 122.398438 201.066406 123.53125 198.3125 125.636719 197.503906 C 127.902344 196.695312 130.332031 197.664062 131.140625 199.929688 L 131.304688 200.417969 C 132.113281 202.683594 130.980469 205.113281 128.710938 205.921875 C 128.226562 206.246094 127.742188 206.246094 127.253906 206.246094 Z M 121.101562 189.570312 C 119.324219 189.570312 117.703125 188.4375 117.054688 186.820312 C 116.246094 184.550781 117.21875 181.800781 119.484375 180.992188 C 121.75 180.019531 124.179688 181.152344 124.988281 183.257812 L 125.152344 183.742188 C 125.960938 186.007812 124.828125 188.4375 122.558594 189.410156 C 122.238281 189.410156 121.589844 189.570312 121.101562 189.570312 Z M 115.113281 172.734375 C 113.332031 172.734375 111.714844 171.601562 111.066406 169.980469 C 110.253906 167.714844 111.226562 164.964844 113.492188 164.15625 C 115.761719 163.34375 118.1875 164.316406 119 166.421875 L 119.160156 166.90625 C 119.96875 169.171875 118.835938 171.601562 116.570312 172.574219 C 116.085938 172.734375 115.597656 172.734375 115.113281 172.734375 Z M 115.113281 172.734375 " fill-opacity="1" fill-rule="nonzero"/><path fill="#deb867" d="M 187.96875 235.871094 C 187.320312 235.871094 186.511719 235.707031 185.863281 235.386719 C 183.757812 234.25 182.949219 231.660156 184.082031 229.558594 C 185.21875 227.453125 187.96875 226.480469 190.074219 227.613281 C 192.179688 228.746094 193.148438 231.175781 192.015625 233.28125 L 191.855469 233.605469 C 191.046875 235.0625 189.589844 235.871094 187.96875 235.871094 Z M 196.550781 220.167969 C 195.902344 220.167969 195.09375 220.003906 194.445312 219.683594 C 192.339844 218.546875 191.53125 215.957031 192.664062 213.855469 C 193.796875 211.75 196.550781 210.777344 198.65625 211.910156 C 200.757812 213.042969 201.730469 215.472656 200.597656 217.578125 L 200.4375 217.902344 C 199.625 219.359375 198.007812 220.167969 196.550781 220.167969 Z M 204.96875 204.464844 C 204.160156 204.464844 203.511719 204.300781 202.863281 203.816406 C 200.757812 202.683594 200.113281 199.929688 201.246094 197.828125 C 202.378906 195.722656 205.132812 194.914062 207.234375 196.046875 C 209.339844 197.179688 210.148438 199.769531 208.855469 201.710938 L 208.691406 202.035156 C 207.882812 203.816406 206.425781 204.464844 204.96875 204.464844 Z M 213.550781 188.921875 C 212.902344 188.921875 212.09375 188.761719 211.445312 188.4375 C 209.339844 187.304688 208.53125 184.714844 209.664062 182.609375 C 210.796875 180.503906 213.550781 179.535156 215.65625 180.667969 C 217.757812 181.800781 218.730469 184.226562 217.597656 186.332031 L 217.433594 186.65625 C 216.464844 188.113281 215.007812 188.921875 213.550781 188.921875 Z M 213.550781 188.921875 " fill-opacity="1" fill-rule="nonzero"/><path fill="#deb867" d="M 90.828125 266.792969 C 90.019531 266.792969 89.207031 266.628906 88.5625 266.144531 C 86.457031 264.847656 85.648438 262.097656 86.941406 259.992188 C 88.238281 257.886719 90.664062 257.238281 92.769531 258.375 L 93.09375 258.535156 C 95.199219 259.832031 95.847656 262.421875 94.550781 264.523438 C 93.578125 265.980469 92.285156 266.792969 90.828125 266.792969 Z M 75.445312 257.5625 C 74.636719 257.5625 73.828125 257.402344 73.179688 256.917969 C 71.074219 255.621094 70.265625 252.867188 71.5625 250.765625 C 72.855469 248.660156 75.285156 248.011719 77.390625 249.144531 L 77.714844 249.308594 C 79.816406 250.601562 80.464844 253.191406 79.171875 255.296875 C 78.359375 256.917969 76.902344 257.5625 75.445312 257.5625 Z M 60.226562 248.496094 C 59.417969 248.496094 58.769531 248.335938 57.960938 247.851562 C 55.855469 246.554688 55.046875 243.804688 56.179688 241.859375 C 57.3125 239.757812 59.902344 238.945312 62.007812 240.242188 L 62.332031 240.402344 C 64.4375 241.699219 65.085938 244.289062 63.789062 246.394531 C 63.140625 247.6875 61.683594 248.496094 60.226562 248.496094 Z M 45.007812 239.269531 C 44.199219 239.269531 43.550781 239.109375 42.742188 238.621094 C 40.636719 237.328125 39.828125 234.574219 40.960938 232.632812 C 42.09375 230.527344 44.683594 229.71875 46.789062 231.015625 L 47.113281 231.175781 C 49.21875 232.472656 49.867188 235.0625 48.570312 237.164062 C 47.921875 238.460938 46.464844 239.269531 45.007812 239.269531 Z M 45.007812 239.269531 " fill-opacity="1" fill-rule="nonzero"/><path fill="#deb867" d="M 431.796875 170.792969 C 431.472656 170.792969 430.984375 170.792969 430.660156 170.628906 C 428.394531 169.980469 426.9375 167.554688 427.746094 165.289062 C 428.394531 163.019531 430.824219 161.5625 433.253906 162.050781 C 435.519531 162.699219 436.976562 164.964844 436.328125 167.230469 L 436.167969 167.714844 C 435.519531 169.496094 433.738281 170.792969 431.796875 170.792969 Z M 436.652344 153.632812 C 436.328125 153.632812 435.84375 153.632812 435.519531 153.46875 C 433.253906 152.820312 431.796875 150.394531 432.605469 148.128906 C 433.253906 145.859375 435.679688 144.402344 438.109375 144.890625 C 440.375 145.539062 441.832031 147.804688 441.183594 150.070312 L 441.023438 150.554688 C 440.214844 152.335938 438.433594 153.632812 436.652344 153.632812 Z M 441.347656 136.472656 C 441.023438 136.472656 440.539062 136.472656 440.214844 136.308594 C 437.945312 135.664062 436.488281 133.234375 437.300781 130.96875 C 437.945312 128.699219 440.539062 127.082031 442.804688 127.730469 C 445.070312 128.378906 446.527344 130.644531 445.878906 132.910156 L 445.71875 133.394531 C 444.910156 135.175781 443.289062 136.472656 441.347656 136.472656 Z M 446.042969 119.3125 C 445.71875 119.3125 445.394531 119.3125 445.070312 119.148438 C 442.804688 118.503906 441.347656 116.234375 441.832031 113.96875 C 442.320312 111.703125 444.746094 109.921875 447.175781 110.570312 C 449.441406 111.21875 450.898438 113.320312 450.414062 115.589844 L 450.25 116.074219 C 449.765625 117.855469 447.984375 119.3125 446.042969 119.3125 Z M 450.898438 102.152344 C 450.574219 102.152344 450.089844 102.152344 449.765625 101.988281 C 447.5 101.34375 446.042969 98.914062 446.851562 96.648438 C 447.5 94.378906 450.089844 92.921875 452.355469 93.410156 C 454.625 94.058594 456.082031 96.324219 455.433594 98.589844 L 455.269531 99.074219 C 454.460938 100.855469 452.679688 102.152344 450.898438 102.152344 Z M 455.59375 84.992188 C 455.269531 84.992188 454.785156 84.992188 454.460938 84.828125 C 452.195312 84.183594 450.738281 81.753906 451.546875 79.488281 C 452.195312 77.21875 454.625 75.601562 457.050781 76.25 C 459.320312 76.898438 460.777344 79.164062 460.128906 81.429688 L 459.964844 81.914062 C 459.15625 83.695312 457.539062 84.992188 455.59375 84.992188 Z M 455.59375 84.992188 " fill-opacity="1" fill-rule="nonzero"/><path fill="#deb867" d="M 388.242188 166.421875 C 386.625 166.421875 385.167969 165.613281 384.355469 164.15625 C 383.222656 162.050781 384.035156 159.136719 386.136719 158.164062 C 388.242188 157.03125 390.832031 157.679688 391.96875 159.785156 L 392.128906 160.105469 C 393.261719 162.210938 392.453125 164.800781 390.347656 165.933594 C 389.699219 166.257812 388.890625 166.421875 388.242188 166.421875 Z M 380.148438 150.554688 C 378.527344 150.554688 377.070312 149.746094 376.261719 148.289062 C 375.128906 146.183594 375.9375 143.269531 378.042969 142.300781 C 380.148438 141.167969 382.738281 141.8125 383.871094 143.917969 L 384.035156 144.242188 C 385.167969 146.347656 384.355469 148.9375 382.253906 150.070312 C 381.441406 150.394531 380.796875 150.554688 380.148438 150.554688 Z M 371.890625 134.691406 C 370.273438 134.691406 368.816406 133.882812 368.003906 132.425781 C 366.871094 130.320312 367.519531 127.566406 369.625 126.433594 C 371.730469 125.300781 374.320312 125.949219 375.453125 128.054688 L 375.613281 128.378906 C 376.746094 130.480469 375.9375 133.070312 373.832031 134.207031 C 373.347656 134.527344 372.699219 134.691406 371.890625 134.691406 Z M 363.796875 118.824219 C 362.175781 118.824219 360.71875 118.015625 359.910156 116.558594 C 358.777344 114.453125 359.425781 111.703125 361.527344 110.570312 C 363.632812 109.4375 366.222656 110.082031 367.359375 112.1875 L 367.679688 112.511719 C 368.816406 114.617188 368.003906 117.207031 365.902344 118.339844 C 365.253906 118.664062 364.441406 118.824219 363.796875 118.824219 Z M 355.699219 103.121094 C 354.082031 103.121094 352.625 102.3125 351.816406 100.855469 C 350.679688 98.75 351.492188 95.835938 353.597656 94.867188 C 355.699219 93.734375 358.292969 94.378906 359.425781 96.484375 L 359.585938 96.808594 C 360.71875 98.914062 359.910156 101.503906 357.804688 102.636719 C 356.996094 102.960938 356.347656 103.121094 355.699219 103.121094 Z M 355.699219 103.121094 " fill-opacity="1" fill-rule="nonzero"/><path fill="#deb867" d="M 465.792969 192 C 464.175781 192 462.71875 191.191406 461.910156 189.570312 C 460.777344 187.464844 461.746094 184.875 463.851562 183.742188 C 465.957031 182.609375 468.707031 183.417969 469.84375 185.523438 C 470.976562 187.628906 470.328125 190.21875 468.0625 191.191406 L 467.738281 191.351562 C 467.089844 191.835938 466.441406 192 465.792969 192 Z M 481.660156 184.066406 C 480.042969 184.066406 478.421875 183.09375 477.773438 181.636719 C 476.804688 179.535156 477.613281 176.945312 479.878906 175.808594 C 481.984375 174.839844 484.898438 175.648438 485.871094 177.753906 C 486.84375 179.859375 486.195312 182.449219 484.089844 183.417969 L 483.765625 183.582031 C 482.957031 183.90625 482.308594 184.066406 481.660156 184.066406 Z M 497.6875 176.296875 C 496.070312 176.296875 494.453125 175.324219 493.804688 173.867188 C 492.832031 171.761719 493.640625 169.171875 495.910156 168.039062 C 498.011719 167.070312 500.765625 167.878906 501.898438 169.980469 C 502.871094 172.085938 502.222656 174.675781 500.117188 175.648438 L 499.792969 175.808594 C 498.984375 176.132812 498.335938 176.296875 497.6875 176.296875 Z M 513.71875 168.523438 C 512.097656 168.523438 510.480469 167.554688 509.832031 166.097656 C 508.859375 163.992188 509.671875 161.402344 511.9375 160.269531 C 514.042969 159.296875 516.792969 160.105469 517.925781 162.210938 C 518.898438 164.316406 518.25 166.90625 516.144531 167.878906 L 515.824219 168.039062 C 515.011719 168.363281 514.367188 168.523438 513.71875 168.523438 Z M 529.746094 160.59375 C 528.128906 160.59375 526.507812 159.621094 525.859375 158.164062 C 524.890625 156.058594 525.699219 153.46875 527.964844 152.335938 C 530.070312 151.367188 532.984375 152.175781 533.957031 154.277344 C 534.925781 156.382812 534.28125 158.972656 532.175781 159.945312 L 531.851562 160.105469 C 531.042969 160.59375 530.394531 160.59375 529.746094 160.59375 Z M 529.746094 160.59375 " fill-opacity="1" fill-rule="nonzero"/><path fill="#deb867" d="M 643.238281 357.933594 C 642.59375 357.933594 641.945312 357.773438 641.460938 357.449219 C 639.355469 356.476562 638.382812 353.886719 639.355469 351.621094 C 640.324219 349.515625 643.078125 348.222656 645.183594 349.355469 C 647.289062 350.324219 648.421875 352.753906 647.449219 354.859375 L 647.289062 355.183594 C 646.316406 356.960938 644.859375 357.933594 643.238281 357.933594 Z M 650.363281 341.582031 C 649.714844 341.582031 649.230469 341.421875 648.746094 341.257812 C 646.476562 340.289062 645.507812 337.699219 646.476562 335.59375 C 647.449219 333.328125 650.039062 332.195312 652.304688 333.164062 C 654.574219 334.136719 655.707031 336.402344 654.734375 338.667969 L 654.574219 338.992188 C 653.601562 340.613281 651.984375 341.582031 650.363281 341.582031 Z M 657.488281 325.394531 C 656.839844 325.394531 656.355469 325.234375 655.867188 325.070312 C 653.601562 324.097656 652.628906 321.507812 653.601562 319.40625 C 654.574219 317.136719 657.164062 316.003906 659.429688 316.976562 C 661.695312 317.949219 662.832031 320.214844 661.859375 322.480469 L 661.695312 322.804688 C 660.726562 324.261719 659.105469 325.394531 657.488281 325.394531 Z M 664.609375 309.042969 C 663.964844 309.042969 663.476562 308.882812 662.992188 308.71875 C 660.726562 307.75 659.753906 305.160156 660.726562 303.054688 C 661.695312 300.789062 664.289062 299.65625 666.554688 300.625 C 668.820312 301.597656 669.953125 303.863281 668.984375 306.128906 L 668.820312 306.453125 C 668.011719 308.074219 666.390625 309.042969 664.609375 309.042969 Z M 671.734375 292.691406 C 671.085938 292.691406 670.601562 292.53125 670.117188 292.371094 C 667.847656 291.398438 666.878906 288.808594 667.847656 286.703125 C 668.820312 284.4375 671.410156 283.304688 673.679688 284.273438 C 675.945312 285.246094 677.078125 287.511719 676.105469 289.78125 L 675.945312 290.101562 C 675.136719 291.722656 673.515625 292.691406 671.734375 292.691406 Z M 679.019531 276.34375 C 678.371094 276.34375 677.886719 276.179688 677.402344 276.019531 C 675.136719 275.046875 674.164062 272.457031 675.136719 270.351562 C 676.105469 268.085938 678.695312 266.953125 680.964844 267.925781 C 683.230469 268.894531 684.363281 271.164062 683.390625 273.429688 L 683.230469 273.753906 C 682.257812 275.371094 680.640625 276.34375 679.019531 276.34375 Z M 679.019531 276.34375 " fill-opacity="1" fill-rule="nonzero"/><path fill="#deb867" d="M 726.621094 437.097656 C 726.132812 437.097656 725.488281 436.933594 725 436.773438 C 722.734375 435.964844 721.4375 433.210938 722.410156 431.105469 C 723.21875 428.839844 725.648438 427.707031 727.914062 428.515625 L 728.402344 428.679688 C 730.667969 429.488281 731.800781 432.078125 730.828125 434.34375 C 730.019531 436.125 728.402344 437.097656 726.621094 437.097656 Z M 710.105469 430.460938 C 709.621094 430.460938 708.972656 430.296875 708.488281 430.136719 C 706.21875 429.164062 705.085938 426.574219 705.894531 424.308594 C 706.867188 422.042969 709.132812 420.910156 711.402344 421.878906 L 711.726562 422.042969 C 713.992188 423.011719 714.964844 425.441406 714.152344 427.707031 C 713.507812 429.488281 711.886719 430.460938 710.105469 430.460938 Z M 693.59375 423.824219 C 693.105469 423.824219 692.457031 423.660156 691.972656 423.5 C 689.707031 422.6875 688.410156 419.9375 689.382812 417.832031 C 690.191406 415.566406 692.457031 414.433594 694.886719 415.242188 L 695.371094 415.402344 C 697.640625 416.214844 698.773438 418.804688 697.800781 421.070312 C 696.992188 422.851562 695.371094 423.824219 693.59375 423.824219 Z M 677.078125 417.183594 C 676.59375 417.183594 675.945312 417.023438 675.457031 416.859375 C 673.191406 416.050781 671.898438 413.300781 672.867188 411.195312 C 673.679688 408.929688 676.105469 407.796875 678.371094 408.605469 L 678.859375 408.765625 C 681.125 409.578125 682.257812 412.167969 681.289062 414.433594 C 680.476562 416.050781 678.859375 417.183594 677.078125 417.183594 Z M 677.078125 417.183594 " fill-opacity="1" fill-rule="nonzero"/><path fill="#deb867" d="M 652.792969 623.753906 C 651.820312 623.753906 650.6875 623.429688 649.878906 622.621094 C 648.097656 621 647.933594 618.25 649.554688 616.46875 C 651.171875 614.6875 654.085938 614.363281 655.867188 615.984375 C 657.648438 617.601562 657.972656 620.191406 656.355469 621.972656 L 656.03125 622.296875 C 655.222656 623.269531 654.085938 623.753906 652.792969 623.753906 Z M 664.773438 610.480469 C 663.800781 610.480469 662.667969 610.15625 661.859375 609.347656 C 660.078125 607.726562 659.917969 604.976562 661.535156 603.195312 C 663.152344 601.414062 666.066406 601.089844 667.847656 602.707031 C 669.628906 604.328125 669.953125 606.917969 668.335938 608.699219 L 668.011719 609.023438 C 667.203125 609.992188 665.90625 610.480469 664.773438 610.480469 Z M 676.753906 597.367188 C 675.621094 597.367188 674.648438 597.042969 673.839844 596.234375 C 672.058594 594.613281 672.058594 591.863281 673.679688 590.082031 C 675.296875 588.300781 678.210938 588.136719 679.992188 589.757812 C 681.773438 591.375 681.933594 593.964844 680.316406 595.746094 L 679.992188 596.070312 C 679.019531 596.878906 677.886719 597.367188 676.753906 597.367188 Z M 688.734375 584.089844 C 687.761719 584.089844 686.628906 583.765625 685.820312 582.957031 C 684.039062 581.339844 683.878906 578.585938 685.496094 576.804688 C 687.117188 575.027344 690.03125 574.703125 691.8125 576.320312 C 693.59375 577.941406 693.914062 580.53125 692.296875 582.308594 L 691.972656 582.632812 C 691 583.605469 689.867188 584.089844 688.734375 584.089844 Z M 700.714844 570.976562 C 699.746094 570.976562 698.609375 570.65625 697.800781 569.84375 C 696.019531 568.226562 695.859375 565.472656 697.476562 563.695312 C 699.097656 561.914062 702.011719 561.589844 703.792969 563.207031 C 705.574219 564.828125 705.894531 567.417969 704.277344 569.199219 L 703.953125 569.519531 C 702.980469 570.492188 701.847656 570.976562 700.714844 570.976562 Z M 700.714844 570.976562 " fill-opacity="1" fill-rule="nonzero"/><path fill="#deb867" d="M 701.363281 738.207031 C 700.230469 738.207031 698.933594 737.722656 698.125 736.75 C 696.507812 734.96875 696.507812 732.058594 698.285156 730.4375 C 700.066406 728.820312 702.660156 728.820312 704.277344 730.601562 L 704.601562 730.921875 C 706.21875 732.703125 706.058594 735.457031 704.277344 737.074219 C 703.46875 737.722656 702.496094 738.207031 701.363281 738.207031 Z M 689.542969 724.933594 C 688.410156 724.933594 687.117188 724.449219 686.304688 723.476562 C 684.6875 721.695312 684.6875 718.78125 686.46875 717.164062 C 688.25 715.542969 690.839844 715.542969 692.457031 717.324219 L 692.78125 717.648438 C 694.402344 719.429688 694.238281 722.179688 692.457031 723.800781 C 691.648438 724.449219 690.675781 724.933594 689.542969 724.933594 Z M 677.726562 711.660156 C 676.59375 711.660156 675.296875 711.171875 674.488281 710.203125 C 672.867188 708.421875 672.867188 705.507812 674.648438 703.886719 C 676.429688 702.269531 679.019531 702.269531 680.640625 704.050781 L 680.964844 704.375 C 682.582031 706.15625 682.421875 708.90625 680.640625 710.527344 C 679.828125 711.171875 678.695312 711.660156 677.726562 711.660156 Z M 665.90625 698.382812 C 664.773438 698.382812 663.476562 697.898438 662.667969 696.925781 C 661.050781 695.144531 661.050781 692.230469 662.832031 690.613281 C 664.609375 688.996094 667.203125 688.996094 668.820312 690.773438 L 669.144531 691.097656 C 670.761719 692.878906 670.601562 695.632812 668.820312 697.25 C 667.847656 697.898438 666.878906 698.382812 665.90625 698.382812 Z M 665.90625 698.382812 " fill-opacity="1" fill-rule="nonzero"/><path fill="#deb867" d="M 610.535156 666.007812 C 610.535156 666.007812 704.117188 561.914062 807.570312 643.988281 C 735.363281 741.445312 610.535156 666.007812 610.535156 666.007812 Z M 610.535156 666.007812 " fill-opacity="1" fill-rule="nonzero"/><path fill="#a49180" d="M 709.132812 695.792969 C 656.515625 695.792969 610.210938 668.273438 609.402344 667.789062 C 608.917969 667.464844 608.429688 666.816406 608.429688 666.332031 C 608.269531 665.683594 608.59375 665.035156 608.917969 664.550781 C 609.886719 663.578125 705.085938 559.96875 808.867188 642.210938 C 809.839844 643.019531 810 644.3125 809.191406 645.121094 C 780.535156 683.976562 743.457031 695.792969 709.132812 695.792969 Z M 613.9375 665.359375 C 631.257812 674.910156 739.570312 729.304688 804.496094 644.152344 C 712.535156 572.921875 627.535156 651.761719 613.9375 665.359375 Z M 613.9375 665.359375 " fill-opacity="1" fill-rule="nonzero"/><path fill="#eeddcf" d="M 632.878906 662.769531 C 632.878906 662.769531 743.945312 608.859375 776.164062 648.847656 C 755.4375 696.765625 632.878906 662.769531 632.878906 662.769531 Z M 632.878906 662.769531 " fill-opacity="1" fill-rule="nonzero"/><path fill="#deb867" d="M 681.773438 664.226562 C 679.667969 664.226562 677.726562 662.605469 677.402344 660.339844 C 677.078125 657.910156 678.859375 655.808594 681.125 655.484375 C 683.390625 655.160156 685.820312 656.777344 686.144531 659.207031 C 686.46875 661.636719 685.011719 663.738281 682.582031 664.0625 L 682.097656 664.0625 C 682.097656 664.226562 681.933594 664.226562 681.773438 664.226562 Z M 699.421875 662.121094 C 697.152344 662.121094 695.371094 660.503906 695.050781 658.234375 C 694.726562 655.808594 696.507812 653.703125 698.933594 653.378906 C 701.363281 653.21875 703.628906 654.835938 703.953125 657.101562 C 704.277344 659.53125 702.820312 661.636719 700.390625 661.960938 L 699.90625 661.960938 C 699.746094 662.121094 699.582031 662.121094 699.421875 662.121094 Z M 717.230469 660.179688 C 714.964844 660.179688 713.183594 658.558594 712.859375 656.292969 C 712.695312 653.863281 714.316406 651.761719 716.742188 651.597656 C 718.847656 651.4375 721.4375 653.054688 721.761719 655.484375 C 721.925781 657.910156 720.46875 660.015625 718.039062 660.179688 L 717.554688 660.179688 C 717.390625 660.179688 717.230469 660.179688 717.230469 660.179688 Z M 734.878906 658.074219 C 732.773438 658.074219 730.828125 656.457031 730.503906 654.1875 C 730.183594 651.761719 731.960938 649.65625 734.230469 649.332031 C 736.65625 649.007812 738.925781 650.628906 739.25 653.054688 C 739.570312 655.484375 738.113281 657.589844 735.6875 657.910156 L 735.199219 657.910156 C 735.199219 658.074219 735.039062 658.074219 734.878906 658.074219 Z M 752.523438 656.132812 C 750.417969 656.132812 748.476562 654.511719 748.152344 652.246094 C 747.828125 649.816406 749.609375 647.714844 751.875 647.390625 C 753.980469 647.066406 756.570312 648.683594 756.894531 651.113281 C 757.21875 653.542969 755.761719 655.644531 753.332031 655.96875 L 752.847656 655.96875 C 752.847656 655.96875 752.6875 656.132812 752.523438 656.132812 Z M 752.523438 656.132812 " fill-opacity="1" fill-rule="nonzero"/><path fill="#efb5b4" d="M 119 450.210938 C 117.21875 450.210938 115.4375 449.238281 114.789062 447.457031 C 113.980469 445.191406 114.789062 442.761719 117.054688 441.953125 L 117.542969 441.792969 C 119.808594 440.820312 122.238281 441.953125 123.207031 444.21875 C 124.019531 446.488281 123.046875 448.914062 120.78125 449.886719 C 120.132812 450.210938 119.644531 450.210938 119 450.210938 Z M 135.675781 443.734375 C 133.894531 443.734375 132.113281 442.761719 131.464844 440.984375 C 130.65625 438.714844 131.464844 436.289062 133.730469 435.476562 L 134.21875 435.316406 C 136.484375 434.34375 138.914062 435.476562 139.882812 437.746094 C 140.695312 440.011719 139.722656 442.441406 137.457031 443.410156 C 136.808594 443.574219 136.160156 443.734375 135.675781 443.734375 Z M 152.1875 437.257812 C 150.40625 437.257812 148.625 436.289062 147.980469 434.507812 C 147.167969 432.242188 147.980469 429.8125 150.246094 429.003906 L 150.570312 428.839844 C 152.835938 428.03125 155.265625 429.003906 156.234375 431.269531 C 157.046875 433.535156 156.074219 435.964844 153.808594 436.933594 C 153.320312 437.097656 152.675781 437.257812 152.1875 437.257812 Z M 168.703125 430.621094 C 166.921875 430.621094 165.140625 429.648438 164.492188 427.871094 C 163.683594 425.601562 164.492188 423.175781 166.761719 422.367188 L 167.246094 422.203125 C 169.511719 421.230469 171.941406 422.367188 172.914062 424.632812 C 173.722656 426.898438 172.75 429.328125 170.484375 430.296875 C 169.835938 430.621094 169.351562 430.621094 168.703125 430.621094 Z M 168.703125 430.621094 " fill-opacity="1" fill-rule="nonzero"/><path fill="#efb5b4" d="M 269.890625 402.9375 C 269.246094 402.9375 268.433594 402.777344 267.789062 402.453125 C 265.683594 401.320312 264.875 398.730469 266.007812 396.625 C 267.140625 394.519531 269.890625 393.550781 271.996094 394.683594 C 274.101562 395.816406 274.910156 398.242188 273.777344 400.347656 L 273.617188 400.671875 C 272.804688 402.128906 271.347656 402.9375 269.890625 402.9375 Z M 278.3125 387.398438 C 277.664062 387.398438 276.855469 387.234375 276.207031 386.910156 C 274.101562 385.777344 273.292969 383.1875 274.425781 381.085938 C 275.558594 378.980469 278.3125 378.007812 280.414062 379.140625 C 282.519531 380.273438 283.492188 382.703125 282.359375 384.808594 L 282.195312 385.132812 C 281.386719 386.589844 279.929688 387.398438 278.3125 387.398438 Z M 286.890625 371.695312 C 286.246094 371.695312 285.433594 371.53125 284.789062 371.207031 C 282.683594 370.074219 281.871094 367.484375 283.007812 365.382812 C 284.140625 363.277344 286.890625 362.304688 288.996094 363.4375 C 291.101562 364.570312 292.074219 367 290.9375 369.105469 L 290.777344 369.429688 C 289.96875 370.886719 288.511719 371.695312 286.890625 371.695312 Z M 295.472656 356.152344 C 294.824219 356.152344 294.015625 355.992188 293.367188 355.667969 C 291.261719 354.535156 290.453125 351.945312 291.585938 349.839844 C 292.71875 347.734375 295.472656 346.765625 297.578125 347.898438 C 299.683594 349.03125 300.652344 351.457031 299.519531 353.5625 L 299.359375 353.886719 C 298.550781 355.34375 296.929688 356.152344 295.472656 356.152344 Z M 295.472656 356.152344 " fill-opacity="1" fill-rule="nonzero"/><path fill="#efb5b4" d="M 340.96875 289.457031 C 339.996094 289.457031 339.023438 289.132812 338.214844 288.484375 C 336.273438 287.027344 335.949219 284.113281 337.40625 282.171875 C 338.863281 280.226562 341.453125 279.902344 343.394531 281.359375 L 343.71875 281.683594 C 345.664062 283.140625 345.824219 285.894531 344.367188 287.835938 C 343.394531 288.96875 342.261719 289.457031 340.96875 289.457031 Z M 326.882812 278.445312 C 325.910156 278.445312 324.9375 278.125 324.128906 277.476562 C 322.1875 276.019531 321.863281 273.105469 323.320312 271.164062 C 324.777344 269.21875 327.367188 268.894531 329.308594 270.351562 L 329.632812 270.675781 C 331.578125 272.132812 331.738281 274.886719 330.28125 276.828125 C 329.472656 277.960938 328.175781 278.445312 326.882812 278.445312 Z M 312.957031 267.4375 C 311.988281 267.4375 311.015625 267.113281 310.207031 266.46875 C 308.261719 265.011719 307.9375 262.097656 309.394531 260.152344 C 310.851562 258.210938 313.445312 257.886719 315.386719 259.34375 L 315.710938 259.667969 C 317.652344 261.125 317.816406 263.878906 316.359375 265.820312 C 315.386719 266.953125 314.253906 267.4375 312.957031 267.4375 Z M 298.871094 256.429688 C 297.902344 256.429688 296.929688 256.105469 296.121094 255.460938 C 294.175781 254.003906 293.855469 251.089844 295.3125 249.144531 C 296.769531 247.203125 299.359375 246.878906 301.300781 248.335938 L 301.625 248.660156 C 303.566406 250.117188 303.730469 252.867188 302.273438 254.8125 C 301.464844 255.945312 300.167969 256.429688 298.871094 256.429688 Z M 298.871094 256.429688 " fill-opacity="1" fill-rule="nonzero"/><path fill="#efb5b4" d="M 440.863281 341.90625 C 439.242188 341.90625 437.625 340.9375 436.976562 339.480469 C 436.003906 337.375 436.8125 334.785156 439.082031 333.652344 C 441.183594 332.679688 443.9375 333.488281 445.070312 335.59375 C 446.042969 337.699219 445.394531 340.289062 443.289062 341.257812 L 442.964844 341.421875 C 442.15625 341.746094 441.507812 341.90625 440.863281 341.90625 Z M 457.050781 334.296875 C 455.433594 334.296875 453.8125 333.328125 453.167969 331.871094 C 452.195312 329.765625 453.003906 327.175781 455.269531 326.042969 C 457.375 325.070312 460.128906 325.878906 461.261719 327.984375 C 462.234375 330.089844 461.585938 332.679688 459.480469 333.652344 L 459.15625 333.8125 C 458.347656 334.136719 457.699219 334.296875 457.050781 334.296875 Z M 473.082031 326.691406 C 471.460938 326.691406 469.84375 325.71875 469.195312 324.261719 C 468.222656 322.15625 469.03125 319.566406 471.300781 318.433594 C 473.402344 317.460938 476.15625 318.273438 477.289062 320.375 C 478.261719 322.480469 477.613281 325.070312 475.507812 326.042969 L 475.183594 326.203125 C 474.375 326.527344 473.726562 326.691406 473.082031 326.691406 Z M 489.269531 319.082031 C 487.652344 319.082031 486.03125 318.109375 485.386719 316.652344 C 484.414062 314.546875 485.222656 311.957031 487.488281 310.824219 C 489.59375 309.851562 492.347656 310.664062 493.480469 312.765625 C 494.453125 314.871094 493.804688 317.460938 491.699219 318.433594 L 491.375 318.59375 C 490.566406 318.917969 489.917969 319.082031 489.269531 319.082031 Z M 489.269531 319.082031 " fill-opacity="1" fill-rule="nonzero"/><path fill="#efb5b4" d="M 548.6875 394.035156 C 548.527344 394.035156 548.203125 394.035156 548.042969 394.035156 C 545.613281 393.710938 543.992188 391.445312 544.480469 389.015625 C 544.804688 386.589844 547.070312 384.808594 549.5 385.132812 C 551.925781 385.453125 553.546875 387.558594 553.222656 389.824219 L 553.222656 390.3125 C 552.738281 392.417969 550.792969 394.035156 548.6875 394.035156 Z M 551.765625 376.390625 C 551.441406 376.390625 551.277344 376.390625 550.957031 376.226562 C 548.527344 375.742188 547.070312 373.476562 547.554688 371.046875 C 548.042969 368.617188 550.144531 367 552.738281 367.484375 C 555.003906 367.972656 556.621094 370.074219 556.136719 372.34375 L 555.972656 372.828125 C 555.652344 374.933594 553.871094 376.390625 551.765625 376.390625 Z M 555.003906 358.90625 C 554.839844 358.90625 554.515625 358.90625 554.355469 358.90625 C 551.925781 358.582031 550.308594 356.316406 550.792969 353.886719 C 551.277344 351.457031 553.707031 349.679688 555.8125 350 C 558.242188 350.324219 559.859375 352.429688 559.535156 354.695312 L 559.535156 355.183594 C 558.890625 357.449219 557.109375 358.90625 555.003906 358.90625 Z M 558.078125 341.421875 C 557.917969 341.421875 557.59375 341.421875 557.429688 341.421875 C 555.003906 341.097656 553.382812 338.832031 553.871094 336.402344 C 554.195312 333.976562 556.785156 332.195312 558.890625 332.519531 C 561.316406 332.839844 562.9375 334.945312 562.613281 337.210938 L 562.613281 337.699219 C 561.964844 339.800781 560.183594 341.421875 558.078125 341.421875 Z M 558.078125 341.421875 " fill-opacity="1" fill-rule="nonzero"/><path fill="#efb5b4" d="M 623.648438 517.394531 C 623.164062 517.394531 622.679688 517.394531 622.355469 517.230469 L 621.867188 517.070312 C 619.601562 516.261719 618.46875 513.832031 619.277344 511.566406 C 620.089844 509.300781 622.515625 508.164062 624.78125 508.976562 C 627.050781 509.785156 628.507812 512.375 627.699219 514.640625 C 626.886719 516.261719 625.429688 517.394531 623.648438 517.394531 Z M 606.8125 511.242188 C 606.328125 511.242188 605.839844 511.242188 605.515625 511.078125 L 605.03125 510.917969 C 602.765625 510.109375 601.632812 507.679688 602.441406 505.414062 C 603.25 503.148438 605.679688 502.015625 607.945312 502.824219 C 610.210938 503.632812 611.667969 506.222656 610.859375 508.488281 C 610.210938 510.109375 608.59375 511.242188 606.8125 511.242188 Z M 590.136719 505.25 C 589.648438 505.25 589.164062 505.25 588.839844 505.089844 L 588.355469 504.929688 C 586.089844 504.117188 584.953125 501.691406 585.765625 499.425781 C 586.574219 497.15625 589.003906 496.023438 591.269531 496.832031 C 593.535156 497.644531 594.992188 500.234375 594.183594 502.5 C 593.535156 504.117188 591.917969 505.25 590.136719 505.25 Z M 573.460938 499.261719 C 572.972656 499.261719 572.488281 499.261719 572.164062 499.101562 L 571.679688 498.9375 C 569.414062 498.128906 568.277344 495.699219 569.089844 493.433594 C 569.898438 491.167969 572.328125 490.035156 574.59375 490.84375 C 576.859375 491.652344 578.316406 494.242188 577.507812 496.511719 C 576.699219 497.96875 575.078125 499.261719 573.460938 499.261719 Z M 573.460938 499.261719 " fill-opacity="1" fill-rule="nonzero"/><path fill="#efb5b4" d="M 532.824219 619.867188 C 531.851562 619.867188 530.878906 619.542969 530.070312 618.898438 C 528.128906 617.441406 527.964844 614.6875 529.421875 612.746094 C 530.878906 610.964844 533.792969 610.316406 535.738281 611.9375 C 537.679688 613.394531 538.003906 615.984375 536.546875 617.925781 L 536.222656 618.25 C 535.25 619.382812 533.957031 619.867188 532.824219 619.867188 Z M 543.992188 606.109375 C 543.023438 606.109375 542.050781 605.785156 541.242188 605.136719 C 539.296875 603.679688 539.136719 600.925781 540.59375 598.984375 C 542.050781 597.042969 544.964844 596.554688 546.90625 598.175781 C 548.851562 599.632812 549.175781 602.222656 547.71875 604.164062 L 547.394531 604.488281 C 546.585938 605.460938 545.289062 606.109375 543.992188 606.109375 Z M 555.164062 592.1875 C 554.195312 592.1875 553.222656 591.863281 552.414062 591.214844 C 550.632812 589.59375 550.308594 586.84375 551.925781 585.0625 C 553.546875 583.28125 556.296875 582.796875 558.242188 584.414062 C 560.023438 586.035156 560.507812 588.460938 558.886719 590.40625 L 558.566406 590.730469 C 557.59375 591.699219 556.460938 592.1875 555.164062 592.1875 Z M 566.5 578.425781 C 565.527344 578.425781 564.554688 578.101562 563.746094 577.453125 C 561.804688 575.996094 561.640625 573.246094 563.097656 571.300781 C 564.554688 569.359375 567.46875 568.875 569.414062 570.492188 C 571.355469 571.949219 571.679688 574.539062 570.222656 576.484375 L 569.898438 576.804688 C 568.925781 577.941406 567.792969 578.425781 566.5 578.425781 Z M 566.5 578.425781 " fill-opacity="1" fill-rule="nonzero"/><path fill="#efb5b4" d="M 530.71875 749.539062 C 529.261719 749.539062 527.804688 748.730469 526.992188 747.4375 C 525.699219 745.332031 526.347656 742.578125 528.449219 741.285156 C 530.554688 739.988281 533.144531 740.636719 534.28125 742.578125 L 534.441406 742.902344 C 535.738281 745.007812 534.925781 747.597656 532.984375 748.894531 C 532.175781 749.378906 531.527344 749.539062 530.71875 749.539062 Z M 521.8125 734.160156 C 520.355469 734.160156 518.898438 733.351562 518.089844 732.058594 C 516.792969 729.953125 517.441406 727.199219 519.546875 725.90625 C 521.652344 724.609375 524.242188 725.257812 525.375 727.199219 L 525.535156 727.523438 C 526.832031 729.628906 526.023438 732.21875 524.078125 733.515625 C 523.269531 734 522.460938 734.160156 521.8125 734.160156 Z M 512.746094 718.78125 C 511.289062 718.78125 509.832031 717.972656 509.023438 716.675781 C 507.726562 714.574219 508.375 711.820312 510.480469 710.527344 C 512.585938 709.230469 515.175781 709.878906 516.308594 711.820312 L 516.46875 712.144531 C 517.765625 714.25 516.957031 716.839844 515.011719 718.132812 C 514.203125 718.621094 513.554688 718.78125 512.746094 718.78125 Z M 503.839844 703.402344 C 502.382812 703.402344 500.925781 702.59375 500.117188 701.296875 C 498.824219 699.195312 499.46875 696.441406 501.574219 695.144531 C 503.679688 693.851562 506.269531 694.5 507.402344 696.441406 L 507.566406 696.765625 C 508.859375 698.871094 508.050781 701.460938 506.109375 702.753906 C 505.296875 703.242188 504.488281 703.402344 503.839844 703.402344 Z M 503.839844 703.402344 " fill-opacity="1" fill-rule="nonzero"/><path fill="#deb867" d="M 619.925781 398.242188 C 619.925781 398.242188 676.753906 268.894531 802.066406 310.339844 C 767.90625 426.898438 619.925781 398.242188 619.925781 398.242188 Z M 619.925781 398.242188 " fill-opacity="1" fill-rule="nonzero"/><path fill="#a49180" d="M 657.8125 403.425781 C 635.628906 403.425781 619.925781 400.511719 619.441406 400.511719 C 618.792969 400.347656 618.308594 400.023438 617.984375 399.378906 C 617.660156 398.730469 617.660156 398.082031 617.984375 397.433594 C 618.628906 396.140625 676.914062 266.792969 802.714844 308.394531 C 803.847656 308.71875 804.496094 310.015625 804.171875 311.148438 C 780.859375 390.472656 704.761719 403.425781 657.8125 403.425781 Z M 623.164062 396.625 C 643.402344 399.699219 767.742188 414.109375 799.476562 311.796875 C 688.574219 276.503906 631.90625 378.816406 623.164062 396.625 Z M 623.164062 396.625 " fill-opacity="1" fill-rule="nonzero"/><path fill="#eeddcf" d="M 640.972656 388.367188 C 640.972656 388.367188 729.046875 302.082031 772.4375 329.765625 C 767.90625 381.730469 640.972656 388.367188 640.972656 388.367188 Z M 640.972656 388.367188 " fill-opacity="1" fill-rule="nonzero"/><path fill="#deb867" d="M 670.277344 377.523438 C 668.660156 377.523438 667.039062 376.550781 666.230469 374.933594 C 665.257812 372.664062 666.230469 370.238281 668.496094 369.265625 C 670.761719 368.292969 673.515625 369.265625 674.488281 371.371094 C 675.457031 373.636719 674.648438 376.066406 672.382812 377.035156 L 671.898438 377.199219 C 671.574219 377.359375 670.925781 377.523438 670.277344 377.523438 Z M 686.628906 370.398438 C 685.011719 370.398438 683.390625 369.429688 682.582031 367.648438 C 681.609375 365.382812 682.746094 362.953125 684.847656 361.980469 C 687.117188 361.011719 689.867188 361.980469 690.675781 364.246094 C 691.648438 366.515625 690.839844 368.941406 688.574219 369.914062 L 688.085938 370.074219 C 687.761719 370.238281 687.277344 370.398438 686.628906 370.398438 Z M 702.980469 363.277344 C 701.363281 363.277344 699.746094 362.304688 698.933594 360.6875 C 697.964844 358.417969 698.933594 355.992188 701.203125 355.019531 C 703.304688 354.046875 706.21875 355.019531 707.03125 357.125 C 708 359.390625 707.191406 361.820312 704.925781 362.789062 L 704.601562 362.953125 C 704.117188 363.113281 703.628906 363.277344 702.980469 363.277344 Z M 719.335938 356.152344 C 717.714844 356.152344 716.097656 355.183594 715.449219 353.5625 C 714.476562 351.296875 715.449219 348.867188 717.554688 347.734375 C 719.65625 346.765625 722.574219 347.574219 723.542969 349.839844 C 724.515625 351.945312 723.707031 354.535156 721.601562 355.503906 L 721.277344 355.667969 C 720.628906 355.992188 719.980469 356.152344 719.335938 356.152344 Z M 735.6875 349.03125 C 734.066406 349.03125 732.449219 348.058594 731.640625 346.441406 C 730.667969 344.171875 731.640625 341.746094 733.90625 340.773438 C 736.171875 339.800781 738.925781 340.773438 739.894531 342.878906 C 740.867188 345.144531 740.058594 347.574219 737.792969 348.542969 L 737.304688 348.707031 C 736.820312 349.03125 736.171875 349.03125 735.6875 349.03125 Z M 752.039062 341.90625 C 750.417969 341.90625 748.800781 340.9375 747.992188 339.316406 C 747.019531 337.050781 747.992188 334.621094 750.257812 333.652344 C 752.363281 332.679688 755.277344 333.652344 756.085938 335.753906 C 757.058594 338.023438 756.25 340.449219 753.980469 341.421875 L 753.65625 341.582031 C 753.171875 341.90625 752.523438 341.90625 752.039062 341.90625 Z M 752.039062 341.90625 " fill-opacity="1" fill-rule="nonzero"/></svg>