<svg xmlns="http://www.w3.org/2000/svg" xmlns:xlink="http://www.w3.org/1999/xlink" width="1080" zoomAndPan="magnify" viewBox="0 0 810 809.999993" height="1080" preserveAspectRatio="xMidYMid meet" version="1.0"><path fill="#dbaa7c" d="M 501.003906 224.199219 C 506.496094 228.320312 512.609375 231.039062 519.347656 232.363281 C 522.050781 233.183594 524.800781 233.78125 527.601562 234.152344 C 530.402344 234.523438 533.210938 234.660156 536.035156 234.570312 C 538.859375 234.476562 541.652344 234.152344 544.421875 233.601562 C 547.195312 233.046875 549.898438 232.273438 552.542969 231.273438 C 554.226562 234.429688 556.28125 237.324219 558.703125 239.957031 C 561.125 242.589844 563.839844 244.878906 566.84375 246.824219 C 569.273438 248.644531 571.851562 250.222656 574.574219 251.5625 C 577.300781 252.902344 580.125 253.976562 583.050781 254.789062 C 585.976562 255.601562 588.953125 256.132812 591.980469 256.390625 C 595.003906 256.644531 598.027344 256.617188 601.046875 256.308594 C 606.996094 255.171875 612.71875 253.335938 618.214844 250.796875 C 623.710938 248.257812 628.820312 245.09375 633.542969 241.300781 C 636.765625 238.992188 639.746094 236.398438 642.480469 233.527344 C 643.664062 234.058594 644.882812 234.5 646.132812 234.847656 C 649.492188 235.785156 652.910156 236.253906 656.394531 236.25 C 659.773438 236.238281 663.101562 235.839844 666.382812 235.050781 C 669.667969 234.261719 672.816406 233.109375 675.828125 231.585938 C 677.910156 230.449219 679.886719 229.152344 681.757812 227.691406 C 683.628906 226.230469 685.367188 224.628906 686.972656 222.882812 C 688.578125 221.140625 690.03125 219.273438 691.332031 217.289062 C 692.628906 215.304688 693.761719 213.230469 694.71875 211.058594 C 696.636719 211.414062 698.570312 211.5625 700.523438 211.507812 C 702.472656 211.449219 704.394531 211.191406 706.292969 210.730469 C 708.1875 210.269531 710.015625 209.613281 711.769531 208.761719 C 713.527344 207.914062 715.175781 206.890625 716.71875 205.695312 C 719.128906 203.90625 721.148438 201.808594 723.402344 199.863281 C 724.601562 198.476562 726.105469 197.621094 727.910156 197.296875 C 733.507812 197.296875 738.09375 203.207031 742.914062 205.074219 C 746.492188 206.628906 748.976562 207.09375 752.242188 194.34375 C 752.792969 192.175781 753.101562 189.972656 753.175781 187.734375 C 753.335938 183.371094 752.714844 179.121094 751.308594 174.984375 C 750.5625 173.019531 749.65625 171.136719 748.589844 169.328125 C 747.523438 167.519531 746.3125 165.8125 744.953125 164.210938 C 743.597656 162.609375 742.113281 161.132812 740.507812 159.78125 C 738.898438 158.433594 737.1875 157.226562 735.375 156.167969 C 731.570312 154.046875 727.5625 152.429688 723.351562 151.324219 C 719.136719 150.21875 714.855469 149.65625 710.5 149.640625 C 705.777344 149.582031 701.113281 150.074219 696.507812 151.117188 C 694.175781 151.660156 692.074219 152.4375 689.820312 153.136719 C 687.449219 153.753906 685.144531 154.558594 682.902344 155.546875 L 682.359375 156.09375 C 666.8125 134.789062 634.550781 136.8125 616.441406 155.3125 C 613.214844 151.601562 609.382812 148.699219 604.933594 146.605469 C 603.503906 145.96875 602.035156 145.417969 600.539062 144.957031 C 599.039062 144.496094 597.515625 144.128906 595.972656 143.851562 C 594.429688 143.574219 592.875 143.394531 591.308594 143.304688 C 589.742188 143.21875 588.175781 143.222656 586.613281 143.324219 C 585.046875 143.425781 583.496094 143.621094 581.953125 143.910156 C 580.410156 144.199219 578.894531 144.582031 577.398438 145.054688 C 575.902344 145.527344 574.441406 146.089844 573.015625 146.738281 C 571.585938 147.386719 570.203125 148.121094 568.867188 148.9375 C 567.019531 147.019531 564.988281 145.328125 562.769531 143.859375 C 560.550781 142.390625 558.199219 141.183594 555.710938 140.234375 C 553.226562 139.289062 550.667969 138.625 548.03125 138.242188 C 545.398438 137.863281 542.757812 137.773438 540.105469 137.976562 C 536.71875 138.203125 533.46875 138.984375 530.347656 140.316406 C 527.226562 141.652344 524.417969 143.460938 521.914062 145.75 C 519.953125 147.878906 518.417969 150.28125 517.308594 152.953125 C 516.199219 155.628906 515.585938 158.410156 515.460938 161.300781 C 515.460938 163.167969 516.160156 163.246094 517.328125 162.078125 C 517.886719 161.035156 518.515625 160.035156 519.214844 159.078125 C 519.910156 158.117188 520.671875 157.214844 521.496094 156.363281 C 522.320312 155.511719 523.199219 154.71875 524.128906 153.988281 C 525.0625 153.261719 526.042969 152.597656 527.066406 152.003906 C 528.09375 151.410156 529.152344 150.886719 530.25 150.441406 C 531.347656 149.992188 532.46875 149.625 533.617188 149.332031 C 534.765625 149.039062 535.929688 148.828125 537.105469 148.699219 C 538.28125 148.566406 539.464844 148.519531 540.648438 148.550781 C 541.914062 148.472656 543.183594 148.484375 544.449219 148.582031 C 545.714844 148.679688 546.96875 148.863281 548.207031 149.128906 C 549.449219 149.398438 550.664062 149.75 551.859375 150.1875 C 553.050781 150.621094 554.207031 151.136719 555.332031 151.730469 C 556.453125 152.324219 557.53125 152.992188 558.5625 153.730469 C 559.59375 154.472656 560.566406 155.28125 561.488281 156.15625 C 562.410156 157.03125 563.265625 157.960938 564.058594 158.953125 C 564.851562 159.945312 565.574219 160.988281 566.222656 162.078125 C 569.019531 166.742188 569.410156 167.054688 573.296875 163.945312 C 586.121094 153.605469 608.199219 156.167969 613.640625 173.507812 C 614.011719 174.476562 614.304688 175.46875 614.519531 176.484375 C 614.738281 177.5 614.875 178.527344 614.9375 179.5625 C 614.996094 180.601562 614.976562 181.636719 614.875 182.667969 C 614.777344 183.703125 614.597656 184.722656 614.34375 185.730469 C 614.085938 186.734375 613.757812 187.71875 613.351562 188.671875 C 612.945312 189.628906 612.464844 190.546875 611.917969 191.429688 C 611.371094 192.3125 610.761719 193.148438 610.085938 193.933594 C 609.410156 194.722656 608.675781 195.457031 607.886719 196.132812 C 606.84375 197.050781 605.695312 197.816406 604.445312 198.429688 C 603.195312 199.039062 601.886719 199.476562 600.519531 199.734375 C 599.152344 199.996094 597.773438 200.070312 596.386719 199.960938 C 595 199.847656 593.652344 199.558594 592.339844 199.085938 C 588.453125 197.21875 587.210938 196.132812 585.34375 190.378906 C 585.34375 190.378906 584.878906 190.378906 584.722656 190.378906 C 580.214844 192.867188 582.546875 199.007812 584.722656 202.117188 C 585.289062 202.71875 585.898438 203.273438 586.546875 203.785156 C 587.195312 204.300781 587.875 204.761719 588.589844 205.175781 C 589.304688 205.589844 590.046875 205.949219 590.816406 206.253906 C 591.582031 206.5625 592.367188 206.808594 593.171875 207.003906 C 593.972656 207.195312 594.785156 207.328125 595.609375 207.402344 C 596.433594 207.476562 597.257812 207.492188 598.082031 207.445312 C 598.90625 207.402344 599.722656 207.296875 600.53125 207.132812 C 601.34375 206.972656 602.136719 206.75 602.914062 206.472656 C 604.355469 205.953125 605.757812 205.335938 607.113281 204.625 C 608.472656 203.910156 609.773438 203.109375 611.019531 202.214844 C 612.269531 201.324219 613.445312 200.347656 614.558594 199.292969 C 615.671875 198.238281 616.707031 197.109375 617.660156 195.910156 C 618.617188 194.710938 619.488281 193.453125 620.269531 192.132812 C 621.050781 190.816406 621.738281 189.449219 622.332031 188.035156 C 622.925781 186.621094 623.417969 185.171875 623.8125 183.691406 C 624.203125 182.207031 624.492188 180.703125 624.679688 179.183594 C 624.957031 174.78125 624.285156 170.53125 622.660156 166.433594 C 623.054688 165.878906 623.464844 165.335938 623.894531 164.808594 C 624.324219 164.28125 624.769531 163.769531 625.230469 163.269531 C 625.691406 162.769531 626.167969 162.285156 626.660156 161.816406 C 627.152344 161.347656 627.660156 160.894531 628.183594 160.460938 C 628.703125 160.023438 629.238281 159.605469 629.785156 159.203125 C 630.335938 158.800781 630.894531 158.414062 631.46875 158.046875 C 632.039062 157.679688 632.625 157.332031 633.21875 157.003906 C 633.8125 156.671875 634.417969 156.363281 635.03125 156.070312 C 635.644531 155.78125 636.269531 155.511719 636.902344 155.257812 C 637.53125 155.007812 638.171875 154.777344 638.820312 154.566406 C 639.464844 154.355469 640.117188 154.164062 640.777344 153.996094 C 641.433594 153.828125 642.097656 153.679688 642.765625 153.550781 C 643.433594 153.425781 644.105469 153.320312 644.78125 153.234375 C 645.453125 153.152344 646.132812 153.089844 646.808594 153.046875 C 647.488281 153.007812 648.167969 152.988281 648.847656 152.988281 C 649.527344 152.992188 650.207031 153.015625 650.886719 153.0625 C 651.5625 153.105469 652.242188 153.175781 652.914062 153.261719 C 653.589844 153.351562 654.257812 153.460938 654.925781 153.59375 C 655.59375 153.722656 656.257812 153.875 656.914062 154.050781 C 657.570312 154.222656 658.222656 154.417969 658.867188 154.632812 C 659.511719 154.847656 660.148438 155.082031 660.78125 155.339844 C 661.410156 155.59375 662.03125 155.871094 662.644531 156.164062 C 663.257812 156.460938 663.859375 156.773438 664.449219 157.109375 C 665.042969 157.441406 665.625 157.792969 666.195312 158.164062 C 666.765625 158.535156 667.324219 158.921875 667.867188 159.328125 C 668.414062 159.734375 668.945312 160.160156 669.464844 160.597656 C 669.980469 161.039062 670.484375 161.496094 670.976562 161.96875 C 671.464844 162.441406 671.9375 162.925781 672.398438 163.429688 C 672.855469 163.929688 673.296875 164.449219 673.722656 164.976562 C 674.148438 165.507812 674.554688 166.050781 674.945312 166.609375 C 675.339844 167.164062 675.710938 167.734375 676.066406 168.3125 C 676.417969 168.894531 676.753906 169.484375 677.074219 170.085938 C 678.394531 172.652344 679.171875 170.863281 681.425781 169.386719 C 698.605469 158.035156 707.3125 158.578125 719.28125 160.914062 C 720.394531 161.097656 721.488281 161.367188 722.558594 161.71875 C 723.628906 162.074219 724.664062 162.507812 725.667969 163.019531 C 726.671875 163.53125 727.632812 164.117188 728.546875 164.777344 C 729.460938 165.4375 730.320312 166.164062 731.121094 166.957031 C 731.921875 167.75 732.660156 168.597656 733.332031 169.503906 C 734.003906 170.40625 734.601562 171.359375 735.128906 172.355469 C 735.652344 173.355469 736.101562 174.386719 736.46875 175.453125 C 736.835938 176.519531 737.117188 177.605469 737.316406 178.714844 C 737.683594 180.574219 737.527344 182.390625 736.851562 184.160156 C 735.5 183.089844 734.039062 182.203125 732.464844 181.5 C 730.894531 180.800781 729.257812 180.300781 727.558594 180.011719 C 725.863281 179.71875 724.15625 179.640625 722.4375 179.777344 C 720.722656 179.914062 719.046875 180.257812 717.417969 180.816406 C 705.914062 185.015625 698.761719 194.578125 685.15625 188.589844 C 682.125 187.347656 682.203125 187.425781 681.113281 190.84375 C 680.757812 191.679688 680.359375 192.496094 679.910156 193.289062 C 679.464844 194.082031 678.976562 194.847656 678.449219 195.585938 C 677.917969 196.324219 677.347656 197.03125 676.738281 197.707031 C 676.132812 198.382812 675.488281 199.023438 674.808594 199.628906 C 674.132812 200.234375 673.421875 200.800781 672.683594 201.328125 C 671.941406 201.855469 671.171875 202.339844 670.378906 202.785156 C 669.585938 203.226562 668.769531 203.625 667.929688 203.976562 C 667.09375 204.332031 666.238281 204.636719 665.367188 204.898438 C 664.496094 205.15625 663.613281 205.367188 662.71875 205.527344 C 661.824219 205.691406 660.921875 205.800781 660.015625 205.867188 C 659.109375 205.929688 658.199219 205.941406 657.292969 205.902344 C 656.382812 205.867188 655.480469 205.78125 654.582031 205.644531 C 653.683594 205.507812 652.792969 205.320312 651.914062 205.085938 C 651.035156 204.855469 650.171875 204.570312 649.324219 204.242188 C 648.476562 203.914062 647.652344 203.539062 646.84375 203.117188 C 646.039062 202.699219 645.257812 202.234375 644.5 201.730469 C 642.246094 200.097656 640.847656 201.730469 639.683594 203.90625 C 632.917969 217.589844 616.363281 225.132812 601.902344 227.230469 C 597.625 227.964844 593.34375 228.011719 589.050781 227.375 C 584.757812 226.738281 580.671875 225.445312 576.792969 223.5 C 573.101562 220.988281 569.734375 218.097656 566.691406 214.832031 C 563.648438 211.5625 561.003906 208 558.761719 204.140625 C 556.972656 201.730469 557.050781 201.886719 554.25 203.59375 C 549.007812 206.203125 543.503906 208 537.730469 208.976562 C 531.957031 209.957031 526.167969 210.082031 520.359375 209.347656 C 515.03125 208.960938 509.847656 207.871094 504.8125 206.082031 C 499.363281 204.671875 494.183594 202.597656 489.265625 199.863281 C 488.332031 199.164062 487.554688 199.863281 487.164062 200.640625 C 487.164062 200.640625 487.164062 200.640625 487.164062 201.105469 C 485.765625 207.949219 490.429688 215.257812 501.003906 224.199219 Z M 501.003906 224.199219 " fill-opacity="1" fill-rule="nonzero"/><path fill="#dbaa7c" d="M 183.53125 301.867188 C 189.726562 307.789062 196.800781 312.351562 204.753906 315.550781 C 215.652344 319.804688 226.949219 321.90625 238.648438 321.847656 C 246.390625 321.632812 253.800781 319.949219 260.878906 316.792969 C 261.484375 319.335938 262.304688 321.804688 263.347656 324.199219 C 264.386719 326.597656 265.628906 328.882812 267.074219 331.058594 C 268.523438 333.234375 270.148438 335.265625 271.953125 337.152344 C 273.757812 339.039062 275.714844 340.753906 277.824219 342.296875 C 280.433594 344.132812 283.183594 345.730469 286.078125 347.085938 C 288.96875 348.441406 291.953125 349.53125 295.035156 350.359375 C 298.121094 351.191406 301.25 351.742188 304.433594 352.019531 C 307.613281 352.296875 310.792969 352.296875 313.972656 352.015625 C 314.875 353.671875 315.890625 355.257812 317.015625 356.773438 C 318.140625 358.289062 319.367188 359.71875 320.691406 361.0625 C 322.019531 362.40625 323.429688 363.652344 324.929688 364.800781 C 326.429688 365.945312 328.003906 366.984375 329.648438 367.910156 C 331.292969 368.835938 332.992188 369.644531 334.75 370.332031 C 336.507812 371.023438 338.304688 371.585938 340.140625 372.023438 C 341.976562 372.460938 343.835938 372.765625 345.714844 372.945312 C 347.59375 373.121094 349.476562 373.167969 351.363281 373.082031 C 353.648438 372.996094 355.921875 372.789062 358.183594 372.457031 C 360.445312 372.121094 362.683594 371.667969 364.894531 371.09375 C 367.109375 370.519531 369.285156 369.824219 371.421875 369.015625 C 373.558594 368.203125 375.648438 367.28125 377.683594 366.242188 C 379.722656 365.203125 381.699219 364.058594 383.609375 362.808594 C 385.523438 361.558594 387.363281 360.207031 389.132812 358.753906 C 390.898438 357.304688 392.582031 355.761719 394.183594 354.128906 C 395.78125 352.496094 397.289062 350.777344 398.703125 348.980469 C 419.691406 361.109375 454.441406 358.777344 464.390625 335.6875 C 467.496094 335.839844 470.542969 335.472656 473.53125 334.59375 C 476.515625 333.714844 479.273438 332.367188 481.800781 330.554688 C 490.742188 324.414062 495.871094 315.007812 508 316.40625 C 513.011719 317.675781 518.101562 318.3125 523.273438 318.3125 C 528.445312 318.3125 533.535156 317.675781 538.550781 316.40625 C 540.722656 315.601562 542.816406 314.628906 544.828125 313.480469 C 546.839844 312.332031 548.746094 311.027344 550.546875 309.566406 C 552.34375 308.105469 554.007812 306.507812 555.542969 304.773438 C 557.078125 303.035156 558.460938 301.1875 559.691406 299.222656 C 563.890625 292.769531 565.523438 284.53125 554.5625 291.449219 C 547.410156 296.113281 533.496094 290.828125 526.035156 286.628906 C 518.570312 282.429688 513.441406 272.324219 507.453125 266.570312 C 506.070312 265.265625 504.609375 264.050781 503.074219 262.929688 C 501.539062 261.804688 499.9375 260.78125 498.277344 259.855469 C 496.613281 258.929688 494.902344 258.113281 493.136719 257.398438 C 491.375 256.6875 489.570312 256.085938 487.734375 255.59375 C 485.894531 255.105469 484.035156 254.730469 482.148438 254.46875 C 480.265625 254.210938 478.371094 254.066406 476.46875 254.042969 C 474.566406 254.019531 472.671875 254.109375 470.777344 254.320312 C 468.886719 254.53125 467.015625 254.855469 465.167969 255.296875 C 464.449219 252.699219 463.480469 250.199219 462.253906 247.796875 C 461.03125 245.394531 459.574219 243.140625 457.890625 241.035156 C 456.207031 238.929688 454.328125 237.015625 452.253906 235.292969 C 450.179688 233.570312 447.957031 232.074219 445.578125 230.808594 C 444.078125 230.152344 442.539062 229.597656 440.964844 229.152344 C 439.390625 228.707031 437.792969 228.367188 436.171875 228.140625 C 434.550781 227.910156 432.921875 227.792969 431.285156 227.785156 C 429.648438 227.777344 428.015625 227.882812 426.394531 228.097656 C 424.769531 228.3125 423.171875 228.636719 421.589844 229.066406 C 420.011719 229.5 418.46875 230.039062 416.964844 230.683594 C 415.457031 231.324219 414.003906 232.066406 412.597656 232.90625 C 411.195312 233.75 409.851562 234.679688 408.574219 235.703125 C 405.078125 238.503906 402.902344 240.679688 398.238281 240.136719 C 393.574219 239.59375 391.085938 238.269531 387.507812 237.570312 C 383.972656 236.757812 380.390625 236.425781 376.765625 236.570312 C 373.136719 236.714844 369.59375 237.332031 366.132812 238.425781 C 361.96875 239.902344 358.105469 241.949219 354.550781 244.566406 C 353.628906 243.480469 352.648438 242.453125 351.605469 241.480469 C 350.5625 240.511719 349.464844 239.609375 348.3125 238.769531 C 347.160156 237.933594 345.964844 237.167969 344.71875 236.472656 C 343.476562 235.78125 342.195312 235.164062 340.875 234.625 C 339.558594 234.085938 338.210938 233.625 336.839844 233.25 C 335.464844 232.871094 334.074219 232.578125 332.667969 232.367188 C 331.257812 232.15625 329.839844 232.03125 328.417969 231.992188 C 326.996094 231.953125 325.574219 231.996094 324.15625 232.128906 C 321.242188 232.457031 318.378906 233.039062 315.570312 233.882812 C 312.761719 234.722656 310.050781 235.808594 307.4375 237.132812 C 304.820312 238.460938 302.347656 240.011719 300.007812 241.78125 C 297.671875 243.554688 295.511719 245.519531 293.527344 247.679688 C 292.636719 246.777344 291.707031 245.921875 290.730469 245.113281 C 289.757812 244.308594 288.742188 243.550781 287.691406 242.84375 C 286.640625 242.136719 285.558594 241.484375 284.441406 240.890625 C 283.324219 240.292969 282.179688 239.75 281.011719 239.269531 C 279.839844 238.785156 278.648438 238.363281 277.4375 238 C 276.222656 237.636719 274.996094 237.335938 273.75 237.097656 C 272.507812 236.855469 271.257812 236.679688 269.996094 236.566406 C 268.734375 236.453125 267.472656 236.402344 266.207031 236.414062 C 264.9375 236.425781 263.675781 236.503906 262.417969 236.640625 C 261.160156 236.78125 259.910156 236.984375 258.675781 237.246094 C 257.4375 237.511719 256.214844 237.835938 255.007812 238.226562 C 253.804688 238.613281 252.621094 239.058594 251.460938 239.566406 C 250.300781 240.070312 249.167969 240.632812 248.0625 241.253906 C 246.957031 241.871094 245.886719 242.546875 244.851562 243.273438 C 243.8125 244 242.816406 244.777344 241.859375 245.601562 C 240.898438 246.429688 239.984375 247.304688 239.113281 248.222656 C 234.761719 252.886719 231.726562 258.5625 227.6875 263.769531 C 223.007812 269.035156 217.488281 273.183594 211.128906 276.210938 C 204.53125 279.378906 197.585938 281.273438 190.296875 281.886719 C 183.714844 282.695312 177.289062 282.023438 171.015625 279.863281 C 172.21875 283.96875 173.878906 287.878906 175.992188 291.597656 C 178.105469 295.3125 180.621094 298.738281 183.53125 301.867188 Z M 230.5625 280.332031 C 235.164062 276.921875 239.15625 272.90625 242.535156 268.28125 C 245.929688 262.570312 250.359375 257.828125 255.828125 254.054688 C 256.582031 253.703125 257.351562 253.386719 258.132812 253.101562 C 258.917969 252.820312 259.710938 252.570312 260.515625 252.355469 C 261.320312 252.140625 262.132812 251.960938 262.949219 251.816406 C 263.769531 251.671875 264.59375 251.5625 265.425781 251.488281 C 266.253906 251.414062 267.085938 251.378906 267.917969 251.375 C 268.75 251.375 269.582031 251.410156 270.410156 251.480469 C 271.242188 251.550781 272.066406 251.660156 272.886719 251.800781 C 273.707031 251.945312 274.519531 252.121094 275.324219 252.332031 C 276.128906 252.546875 276.921875 252.792969 277.707031 253.074219 C 278.492188 253.355469 279.261719 253.671875 280.015625 254.019531 C 280.773438 254.367188 281.511719 254.75 282.238281 255.160156 C 282.960938 255.574219 283.664062 256.015625 284.347656 256.488281 C 285.035156 256.960938 285.699219 257.464844 286.339844 257.996094 C 286.980469 258.527344 287.597656 259.082031 288.191406 259.667969 C 288.785156 260.25 289.351562 260.859375 289.890625 261.492188 C 290.433594 262.128906 290.945312 262.78125 291.429688 263.460938 C 293.761719 267.582031 293.371094 268.824219 296.636719 264.78125 C 298.230469 262.742188 299.980469 260.84375 301.890625 259.09375 C 303.796875 257.339844 305.832031 255.757812 308.003906 254.34375 C 310.171875 252.925781 312.441406 251.699219 314.8125 250.660156 C 317.183594 249.621094 319.625 248.78125 322.132812 248.144531 C 323.148438 247.878906 324.175781 247.695312 325.21875 247.597656 C 326.261719 247.5 327.304688 247.492188 328.347656 247.566406 C 329.390625 247.640625 330.421875 247.800781 331.441406 248.046875 C 332.460938 248.292969 333.449219 248.617188 334.414062 249.027344 C 335.378906 249.4375 336.304688 249.921875 337.1875 250.484375 C 338.070312 251.042969 338.902344 251.671875 339.683594 252.371094 C 340.464844 253.070312 341.183594 253.828125 341.835938 254.644531 C 342.492188 255.460938 343.078125 256.328125 343.589844 257.242188 C 341.542969 260.800781 340.066406 264.585938 339.160156 268.589844 C 338.148438 273.101562 339.625 273.257812 344.832031 271.933594 C 345.652344 271.578125 346.496094 271.28125 347.359375 271.042969 C 348.222656 270.808594 349.097656 270.632812 349.984375 270.519531 C 350.871094 270.40625 351.761719 270.359375 352.65625 270.371094 C 353.550781 270.386719 354.441406 270.464844 355.324219 270.605469 C 356.210938 270.746094 357.078125 270.945312 357.933594 271.210938 C 358.789062 271.476562 359.621094 271.796875 360.429688 272.179688 C 361.238281 272.5625 362.015625 273 362.765625 273.492188 C 363.511719 273.984375 364.21875 274.527344 364.886719 275.121094 C 371.652344 281.265625 369.707031 292.148438 373.441406 298.445312 C 374.339844 299.894531 375.34375 301.269531 376.445312 302.574219 C 377.546875 303.875 378.738281 305.089844 380.019531 306.21875 C 381.296875 307.347656 382.652344 308.378906 384.082031 309.308594 C 385.511719 310.242188 387 311.066406 388.550781 311.78125 C 390.097656 312.496094 391.691406 313.09375 393.328125 313.574219 C 394.964844 314.058594 396.625 314.417969 398.316406 314.660156 C 400.003906 314.898438 401.703125 315.015625 403.410156 315.007812 C 405.113281 315.003906 406.8125 314.871094 408.496094 314.617188 C 409.253906 314.480469 410.003906 314.304688 410.742188 314.09375 C 411.484375 313.882812 412.210938 313.636719 412.925781 313.355469 C 413.644531 313.078125 414.34375 312.761719 415.03125 312.414062 C 415.714844 312.066406 416.382812 311.6875 417.035156 311.273438 C 417.683594 310.863281 418.3125 310.421875 418.917969 309.949219 C 419.527344 309.476562 420.109375 308.976562 420.667969 308.445312 C 421.226562 307.917969 421.757812 307.363281 422.265625 306.785156 C 422.769531 306.207031 423.246094 305.601562 423.695312 304.976562 C 424.144531 304.351562 424.558594 303.707031 424.945312 303.042969 C 425.332031 302.375 425.683594 301.691406 426.003906 300.992188 C 426.324219 300.292969 426.613281 299.582031 426.863281 298.855469 C 427.117188 298.128906 427.332031 297.390625 427.511719 296.644531 C 427.695312 295.894531 427.839844 295.140625 427.949219 294.378906 C 428.054688 293.617188 428.128906 292.851562 428.164062 292.082031 C 428.199219 291.316406 428.195312 290.546875 428.15625 289.777344 C 428.121094 289.011719 428.042969 288.246094 427.933594 287.484375 C 427.574219 286.121094 427.070312 284.816406 426.417969 283.566406 C 425.761719 282.320312 424.980469 281.160156 424.0625 280.089844 C 423.148438 279.019531 422.125 278.066406 420.992188 277.226562 C 419.863281 276.386719 418.648438 275.6875 417.359375 275.121094 C 416.835938 274.839844 416.292969 274.609375 415.730469 274.417969 C 415.164062 274.230469 414.589844 274.09375 414.003906 274.003906 C 413.414062 273.914062 412.824219 273.875 412.230469 273.886719 C 411.636719 273.898438 411.050781 273.960938 410.464844 274.074219 C 409.882812 274.1875 409.3125 274.347656 408.757812 274.558594 C 408.203125 274.769531 407.667969 275.023438 407.15625 275.324219 C 406.644531 275.625 406.160156 275.96875 405.707031 276.351562 C 405.253906 276.734375 404.835938 277.15625 404.457031 277.609375 C 404.25 277.804688 404.117188 278.042969 404.058594 278.316406 C 403.996094 278.59375 404.015625 278.863281 404.117188 279.125 C 404.21875 279.390625 404.386719 279.601562 404.617188 279.765625 C 404.847656 279.929688 405.105469 280.011719 405.386719 280.019531 C 407.632812 280.378906 409.734375 281.136719 411.695312 282.289062 C 413.65625 283.445312 415.335938 284.917969 416.738281 286.707031 C 417.066406 287.269531 417.34375 287.859375 417.566406 288.46875 C 417.789062 289.082031 417.953125 289.710938 418.0625 290.355469 C 418.171875 291 418.21875 291.648438 418.210938 292.300781 C 418.199219 292.949219 418.128906 293.597656 418.003906 294.238281 C 417.875 294.875 417.691406 295.5 417.449219 296.105469 C 417.207031 296.710938 416.914062 297.289062 416.566406 297.84375 C 416.21875 298.394531 415.824219 298.910156 415.382812 299.390625 C 414.941406 299.871094 414.460938 300.308594 413.941406 300.699219 C 405.078125 308.476562 390.617188 302.722656 384.011719 294.558594 C 381.246094 289.914062 379.121094 284.988281 377.636719 279.789062 C 375.90625 275.695312 373.3125 272.246094 369.863281 269.445312 C 367.75 267.785156 365.453125 266.429688 362.972656 265.386719 C 360.492188 264.34375 357.917969 263.652344 355.25 263.304688 C 356.1875 261.472656 357.335938 259.78125 358.691406 258.230469 C 360.050781 256.683594 361.578125 255.328125 363.273438 254.160156 C 364.972656 252.992188 366.785156 252.050781 368.714844 251.335938 C 370.648438 250.621094 372.636719 250.152344 374.683594 249.933594 C 386.730469 248.609375 398.003906 257.707031 409.664062 252.34375 C 414.5625 250.089844 417.902344 245.578125 422.878906 243.480469 C 425.09375 242.566406 427.398438 242.015625 429.789062 241.832031 C 432.179688 241.644531 434.539062 241.832031 436.871094 242.390625 C 446.976562 244.878906 454.828125 259.261719 457.703125 268.359375 C 459.257812 273.179688 460.582031 273.878906 464 272.710938 C 466.09375 271.824219 468.253906 271.175781 470.488281 270.761719 C 472.71875 270.351562 474.972656 270.183594 477.242188 270.265625 C 479.511719 270.34375 481.746094 270.671875 483.945312 271.242188 C 486.140625 271.8125 488.253906 272.613281 490.277344 273.644531 C 496.855469 278.746094 502.867188 284.449219 508.308594 290.75 C 513.996094 295.90625 520.5 299.636719 527.820312 301.945312 C 520.046875 303.035156 511.574219 299.613281 503.414062 300 C 499.726562 300.210938 496.175781 301.019531 492.761719 302.433594 C 489.351562 303.847656 486.269531 305.78125 483.511719 308.242188 C 478.769531 312.128906 472.472656 323.792969 464.699219 321.070312 C 458.25 319.128906 456.925781 319.28125 456.304688 324.648438 C 453.039062 345.792969 413.238281 351.238281 400.023438 333.742188 C 396.835938 329.546875 392.25 329 389.917969 333.742188 C 388.542969 336.121094 386.972656 338.359375 385.207031 340.464844 C 383.441406 342.566406 381.507812 344.503906 379.410156 346.273438 C 377.308594 348.042969 375.070312 349.617188 372.699219 351 C 370.328125 352.382812 367.851562 353.546875 365.277344 354.503906 C 355.09375 358.234375 340.714844 359.476562 332.238281 351.160156 C 331.722656 350.652344 331.234375 350.125 330.773438 349.570312 C 330.308594 349.015625 329.875 348.4375 329.46875 347.84375 C 329.0625 347.246094 328.6875 346.628906 328.34375 345.992188 C 328 345.359375 327.6875 344.707031 327.40625 344.042969 C 327.125 343.375 326.878906 342.699219 326.667969 342.007812 C 326.457031 341.316406 326.277344 340.617188 326.136719 339.910156 C 325.992188 339.203125 325.886719 338.488281 325.816406 337.769531 C 325.742188 337.050781 325.707031 336.332031 325.707031 335.609375 C 325.707031 334.886719 325.742188 334.167969 325.816406 333.449219 C 325.886719 332.730469 325.992188 332.015625 326.136719 331.308594 C 326.277344 330.601562 326.457031 329.902344 326.667969 329.210938 C 326.878906 328.519531 327.125 327.84375 327.40625 327.175781 C 327.6875 326.511719 328 325.859375 328.34375 325.226562 C 328.6875 324.589844 329.0625 323.972656 329.46875 323.378906 C 329.875 322.78125 330.308594 322.203125 330.773438 321.648438 C 331.234375 321.09375 331.722656 320.566406 332.238281 320.058594 C 333.234375 319.203125 334.320312 318.480469 335.492188 317.894531 C 336.667969 317.304688 337.894531 316.867188 339.175781 316.582031 C 340.457031 316.296875 341.753906 316.175781 343.066406 316.210938 C 344.378906 316.246094 345.667969 316.441406 346.933594 316.792969 C 348.289062 317.089844 349.570312 317.585938 350.777344 318.273438 C 351.984375 318.964844 353.0625 319.816406 354.003906 320.835938 C 355.558594 322.546875 360.148438 331.800781 354.003906 330.945312 C 353.566406 330.828125 353.125 330.796875 352.675781 330.855469 C 352.222656 330.914062 351.804688 331.054688 351.410156 331.28125 C 351.015625 331.507812 350.679688 331.800781 350.40625 332.160156 C 350.128906 332.519531 349.929688 332.917969 349.8125 333.355469 C 349.691406 333.792969 349.664062 334.238281 349.71875 334.6875 C 349.777344 335.136719 349.921875 335.558594 350.144531 335.953125 C 350.371094 336.347656 350.664062 336.679688 351.023438 336.957031 C 351.382812 337.234375 351.78125 337.433594 352.21875 337.554688 C 360.613281 340.972656 366.519531 333.355469 367.066406 325.65625 C 367.101562 324.546875 367.0625 323.4375 366.945312 322.332031 C 366.832031 321.226562 366.644531 320.132812 366.378906 319.050781 C 366.117188 317.96875 365.78125 316.910156 365.375 315.875 C 364.972656 314.839844 364.496094 313.835938 363.957031 312.867188 C 363.414062 311.894531 362.808594 310.964844 362.140625 310.074219 C 361.472656 309.183594 360.75 308.34375 359.96875 307.554688 C 359.1875 306.761719 358.355469 306.027344 357.472656 305.347656 C 356.59375 304.671875 355.667969 304.054688 354.707031 303.5 C 333.328125 290.515625 310.785156 312.828125 310.164062 333.976562 C 310.164062 334.910156 310.164062 335.765625 310.164062 336.699219 C 292.207031 336.699219 272.304688 324.414062 272.695312 304.511719 C 272.695312 298.523438 272.695312 299.300781 267.5625 301.945312 C 262.578125 304.085938 257.414062 305.613281 252.066406 306.535156 C 246.71875 307.453125 241.339844 307.738281 235.925781 307.386719 C 226.191406 307.265625 216.707031 305.660156 207.476562 302.566406 C 201.710938 300.359375 196.527344 297.199219 191.929688 293.082031 C 193.585938 293.199219 195.246094 293.199219 196.902344 293.082031 C 202.996094 292.5625 208.902344 291.222656 214.621094 289.054688 C 220.339844 286.886719 225.65625 283.980469 230.5625 280.332031 Z M 230.5625 280.332031 " fill-opacity="1" fill-rule="nonzero"/><path fill="#dbaa7c" d="M 805.257812 417.320312 C 803.390625 412.65625 803.082031 413.511719 800.207031 418.566406 C 794.765625 427.894531 775.175781 427.972656 765.535156 424.707031 C 757.867188 421.269531 750.585938 417.148438 743.691406 412.347656 C 740.980469 410.734375 738.136719 409.414062 735.15625 408.378906 C 732.175781 407.34375 729.121094 406.621094 725.996094 406.207031 C 722.871094 405.792969 719.734375 405.695312 716.585938 405.917969 C 713.441406 406.140625 710.347656 406.675781 707.3125 407.527344 C 706.273438 404.546875 704.957031 401.695312 703.359375 398.972656 C 701.765625 396.253906 699.917969 393.710938 697.828125 391.351562 C 695.734375 388.992188 693.429688 386.855469 690.921875 384.945312 C 688.410156 383.039062 685.738281 381.390625 682.902344 380.003906 C 679.34375 378.726562 675.675781 377.933594 671.910156 377.617188 C 668.140625 377.300781 664.394531 377.472656 660.671875 378.136719 C 652.351562 378.679688 647.609375 371.996094 642.015625 366.863281 C 640.75 365.648438 639.417969 364.519531 638.011719 363.472656 C 636.605469 362.429688 635.140625 361.476562 633.613281 360.617188 C 632.085938 359.757812 630.511719 358.996094 628.890625 358.335938 C 627.265625 357.675781 625.609375 357.121094 623.917969 356.671875 C 622.222656 356.222656 620.507812 355.878906 618.773438 355.644531 C 617.035156 355.414062 615.292969 355.289062 613.539062 355.277344 C 611.789062 355.265625 610.042969 355.363281 608.304688 355.570312 C 606.566406 355.78125 604.847656 356.097656 603.148438 356.523438 C 601.503906 357.011719 599.894531 357.597656 598.316406 358.273438 C 596.742188 358.949219 595.210938 359.714844 593.722656 360.570312 C 592.238281 361.425781 590.804688 362.363281 589.425781 363.382812 C 588.050781 364.402344 586.734375 365.5 585.484375 366.675781 C 584.234375 367.847656 583.054688 369.089844 581.949219 370.398438 C 580.84375 371.710938 579.816406 373.082031 578.867188 374.511719 C 577.921875 375.941406 577.058594 377.417969 576.28125 378.949219 C 575.507812 380.480469 574.824219 382.046875 574.230469 383.65625 C 573.320312 386.597656 571.988281 389.335938 570.238281 391.871094 C 568.488281 394.402344 566.398438 396.617188 563.96875 398.507812 C 556.972656 402.316406 548.03125 399.59375 540.648438 403.636719 C 539.921875 403.972656 539.21875 404.359375 538.546875 404.796875 C 537.875 405.230469 537.238281 405.714844 536.632812 406.238281 C 536.03125 406.765625 535.464844 407.332031 534.941406 407.941406 C 534.421875 408.546875 533.941406 409.1875 533.511719 409.863281 C 533.078125 410.539062 532.699219 411.242188 532.367188 411.96875 C 532.035156 412.699219 531.753906 413.449219 531.53125 414.21875 C 531.304688 414.988281 531.136719 415.769531 531.023438 416.5625 C 530.910156 417.355469 530.851562 418.152344 530.851562 418.953125 C 530.851562 419.753906 530.910156 420.554688 531.023438 421.347656 C 531.136719 422.140625 531.304688 422.921875 531.53125 423.691406 C 531.753906 424.460938 532.035156 425.207031 532.367188 425.9375 C 532.699219 426.667969 533.078125 427.371094 533.511719 428.042969 C 533.941406 428.71875 534.421875 429.359375 534.941406 429.96875 C 535.464844 430.574219 536.03125 431.140625 536.632812 431.667969 C 537.238281 432.195312 537.875 432.675781 538.546875 433.113281 C 539.21875 433.546875 539.921875 433.933594 540.648438 434.269531 C 543.925781 435.777344 547.359375 436.75 550.941406 437.1875 C 554.523438 437.625 558.089844 437.507812 561.636719 436.835938 C 564.019531 436.300781 566.429688 436.152344 568.863281 436.390625 C 571.292969 436.628906 573.628906 437.246094 575.863281 438.234375 C 579.878906 441.148438 583.582031 444.414062 586.976562 448.03125 C 598.792969 458.140625 615.738281 465.292969 630.898438 458.605469 C 644.191406 452.773438 654.21875 435.28125 645.203125 421.910156 C 638.359375 411.800781 623.046875 408.457031 615.429688 419.421875 C 614.183594 421.207031 615.429688 419.421875 617.527344 419.421875 C 637.273438 412.269531 643.492188 431.703125 633.074219 437.847656 C 633.074219 437.847656 632.6875 438.234375 632.53125 438.546875 L 631.675781 439.011719 C 628.472656 440.386719 625.128906 441.140625 621.648438 441.269531 C 619.980469 441.238281 618.335938 441.042969 616.707031 440.6875 C 615.078125 440.332031 613.5 439.820312 611.972656 439.152344 C 610.445312 438.488281 608.996094 437.675781 607.628906 436.722656 C 606.261719 435.773438 605 434.695312 603.847656 433.492188 C 602.363281 432.136719 601.066406 430.625 599.953125 428.953125 C 598.839844 427.28125 597.945312 425.503906 597.269531 423.613281 C 596.589844 421.722656 596.152344 419.777344 595.949219 417.78125 C 595.746094 415.78125 595.789062 413.789062 596.074219 411.800781 C 596.679688 409.960938 597.484375 408.210938 598.484375 406.554688 C 599.484375 404.894531 600.660156 403.371094 602.003906 401.976562 C 603.351562 400.582031 604.835938 399.355469 606.457031 398.300781 C 608.082031 397.242188 609.800781 396.378906 611.621094 395.707031 C 613.410156 394.875 615.246094 394.160156 617.132812 393.5625 C 619.015625 392.964844 620.925781 392.488281 622.871094 392.136719 C 624.816406 391.785156 626.773438 391.558594 628.746094 391.460938 C 630.71875 391.359375 632.691406 391.382812 634.660156 391.539062 C 636.628906 391.691406 638.582031 391.96875 640.515625 392.371094 C 642.449219 392.773438 644.347656 393.300781 646.214844 393.945312 C 648.082031 394.59375 649.898438 395.355469 651.667969 396.238281 C 653.4375 397.117188 655.140625 398.105469 656.785156 399.207031 C 658.792969 400.632812 660.675781 402.207031 662.433594 403.933594 C 664.195312 405.660156 665.804688 407.511719 667.273438 409.492188 C 668.738281 411.472656 670.039062 413.558594 671.171875 415.742188 C 672.308594 417.929688 673.265625 420.191406 674.042969 422.53125 C 674.574219 425.21875 674.859375 427.9375 674.898438 430.675781 C 674.9375 433.417969 674.726562 436.140625 674.269531 438.84375 C 673.8125 441.550781 673.113281 444.1875 672.171875 446.765625 C 671.234375 449.339844 670.066406 451.808594 668.675781 454.171875 C 667.320312 456.566406 665.789062 458.839844 664.082031 460.992188 C 662.375 463.148438 660.511719 465.160156 658.496094 467.023438 C 656.476562 468.890625 654.328125 470.59375 652.046875 472.125 C 649.765625 473.660156 647.378906 475.011719 644.890625 476.175781 C 642 477.058594 639.046875 477.605469 636.027344 477.808594 C 630.320312 478.003906 624.75 477.226562 619.316406 475.476562 C 614.175781 472.570312 608.742188 470.390625 603.019531 468.9375 C 597.296875 467.488281 591.480469 466.816406 585.578125 466.925781 C 581.152344 467.769531 576.949219 469.253906 572.972656 471.375 C 569 473.496094 565.425781 476.15625 562.257812 479.363281 C 560.765625 481.011719 559.054688 482.394531 557.132812 483.507812 C 555.207031 484.625 553.160156 485.417969 550.988281 485.894531 C 548.90625 485.707031 546.90625 485.195312 544.992188 484.355469 C 543.078125 483.519531 541.34375 482.398438 539.792969 480.996094 C 536.652344 478.1875 533.203125 475.828125 529.449219 473.917969 C 525.695312 472.007812 521.757812 470.609375 517.636719 469.722656 C 515.027344 469.691406 512.441406 469.9375 509.878906 470.464844 C 507.320312 470.988281 504.847656 471.78125 502.460938 472.839844 C 500.070312 473.902344 497.824219 475.203125 495.71875 476.75 C 493.609375 478.296875 491.691406 480.046875 489.964844 482.007812 C 480.714844 490.636719 472.472656 498.257812 458.871094 495.691406 C 456.160156 495.207031 453.507812 494.496094 450.917969 493.5625 C 448.328125 492.625 445.835938 491.480469 443.441406 490.125 C 441.042969 488.765625 438.777344 487.21875 436.644531 485.476562 C 434.511719 483.734375 432.539062 481.828125 430.730469 479.753906 C 428.164062 476.953125 427.855469 476.71875 425.210938 479.128906 C 423.355469 480.300781 421.394531 481.25 419.328125 481.988281 C 417.261719 482.722656 415.140625 483.226562 412.964844 483.496094 C 410.789062 483.765625 408.609375 483.792969 406.425781 483.582031 C 404.242188 483.371094 402.109375 482.921875 400.023438 482.238281 C 392.804688 478.769531 385.78125 474.933594 378.957031 470.734375 C 364.421875 464.28125 349.109375 467.933594 334.339844 471.199219 C 326.714844 473.402344 318.941406 474.257812 311.019531 473.765625 C 307.460938 473.042969 304.042969 471.898438 300.769531 470.332031 C 297.496094 468.769531 294.457031 466.828125 291.664062 464.515625 C 289.875 463.269531 287.929688 461.714844 285.910156 460.238281 C 288.542969 460.351562 291.160156 460.210938 293.765625 459.8125 C 296.371094 459.417969 298.914062 458.773438 301.394531 457.878906 C 303.875 456.984375 306.246094 455.859375 308.503906 454.503906 C 310.765625 453.148438 312.871094 451.585938 314.828125 449.820312 C 324.542969 441.191406 331.308594 430.617188 344.132812 426.105469 C 347.246094 424.984375 350.441406 424.195312 353.71875 423.742188 C 356.996094 423.289062 360.28125 423.175781 363.582031 423.410156 C 366.882812 423.644531 370.125 424.21875 373.304688 425.132812 C 376.484375 426.042969 379.535156 427.277344 382.457031 428.828125 C 382.929688 429.082031 383.421875 429.289062 383.929688 429.449219 C 384.441406 429.613281 384.964844 429.722656 385.496094 429.789062 C 386.027344 429.851562 386.558594 429.863281 387.09375 429.828125 C 387.628906 429.789062 388.15625 429.703125 388.671875 429.566406 C 389.191406 429.433594 389.691406 429.25 390.175781 429.019531 C 390.660156 428.789062 391.117188 428.515625 391.550781 428.199219 C 391.984375 427.882812 392.382812 427.53125 392.75 427.140625 C 393.113281 426.75 393.441406 426.328125 393.726562 425.875 C 408.265625 406.59375 437.261719 396.953125 455.917969 416.386719 C 456.945312 417.359375 457.890625 418.402344 458.75 419.523438 C 459.613281 420.644531 460.378906 421.828125 461.046875 423.070312 C 461.71875 424.316406 462.285156 425.605469 462.75 426.941406 C 463.210938 428.277344 463.5625 429.640625 463.808594 431.03125 C 464.050781 432.425781 464.183594 433.828125 464.199219 435.242188 C 464.21875 436.65625 464.125 438.058594 463.914062 439.457031 C 463.707031 440.855469 463.386719 442.230469 462.960938 443.574219 C 462.53125 444.921875 461.996094 446.226562 461.359375 447.488281 C 460.296875 449.394531 458.960938 451.085938 457.351562 452.5625 C 455.742188 454.039062 453.941406 455.222656 451.953125 456.117188 C 450.5 456.269531 449.050781 456.269531 447.597656 456.117188 C 432.050781 454.097656 431.429688 440.566406 433.296875 427.585938 L 433.296875 427.117188 C 432.332031 427.707031 431.417969 428.367188 430.558594 429.097656 C 429.695312 429.832031 428.894531 430.621094 428.15625 431.476562 C 427.417969 432.332031 426.746094 433.238281 426.148438 434.195312 C 425.546875 435.152344 425.023438 436.148438 424.578125 437.1875 C 424.132812 438.226562 423.769531 439.292969 423.484375 440.386719 C 423.203125 441.480469 423.007812 442.589844 422.894531 443.710938 C 422.785156 444.835938 422.761719 445.964844 422.824219 447.089844 C 422.886719 448.21875 423.035156 449.335938 423.269531 450.441406 C 423.753906 452.289062 424.453125 454.046875 425.371094 455.722656 C 426.285156 457.398438 427.390625 458.9375 428.6875 460.339844 C 429.980469 461.742188 431.425781 462.96875 433.019531 464.015625 C 434.617188 465.066406 436.3125 465.902344 438.113281 466.535156 C 441.320312 468.0625 444.671875 469.105469 448.179688 469.660156 C 451.683594 470.214844 455.195312 470.261719 458.714844 469.800781 C 492.996094 465.292969 494.164062 416.855469 477.449219 394.308594 C 476.207031 392.894531 474.882812 391.558594 473.480469 390.304688 C 472.078125 389.050781 470.601562 387.886719 469.058594 386.808594 C 467.515625 385.734375 465.910156 384.753906 464.246094 383.871094 C 462.585938 382.992188 460.875 382.210938 459.117188 381.539062 C 457.359375 380.863281 455.566406 380.296875 453.742188 379.839844 C 451.917969 379.382812 450.070312 379.035156 448.203125 378.800781 C 446.332031 378.566406 444.457031 378.445312 442.578125 378.441406 C 440.695312 378.433594 438.820312 378.539062 436.949219 378.757812 C 432.679688 379.046875 428.457031 379.667969 424.285156 380.625 C 420.117188 381.582031 416.046875 382.863281 412.078125 384.46875 C 408.109375 386.074219 404.296875 387.980469 400.628906 390.191406 C 396.964844 392.402344 393.5 394.890625 390.230469 397.652344 C 389.917969 398.015625 389.578125 398.34375 389.207031 398.644531 C 388.835938 398.945312 388.4375 399.207031 388.019531 399.433594 C 387.597656 399.660156 387.160156 399.847656 386.707031 399.992188 C 386.253906 400.136719 385.789062 400.242188 385.316406 400.300781 C 384.839844 400.363281 384.367188 400.378906 383.890625 400.351562 C 383.414062 400.324219 382.945312 400.253906 382.480469 400.140625 C 382.015625 400.027344 381.566406 399.875 381.132812 399.675781 C 380.695312 399.480469 380.285156 399.246094 379.890625 398.972656 C 376.472656 397.417969 373.363281 395.242188 369.785156 393.84375 C 365.804688 392.304688 361.699219 391.269531 357.460938 390.742188 C 353.226562 390.21875 348.992188 390.214844 344.753906 390.730469 C 340.957031 391.171875 337.242188 391.984375 333.605469 393.160156 C 329.964844 394.339844 326.480469 395.859375 323.144531 397.730469 C 319.808594 399.597656 316.691406 401.773438 313.785156 404.261719 C 310.878906 406.746094 308.25 409.492188 305.886719 412.5 C 301.140625 418.914062 295.960938 424.953125 290.339844 430.617188 C 288.453125 432.082031 286.4375 433.34375 284.296875 434.402344 C 282.152344 435.460938 279.925781 436.292969 277.613281 436.902344 C 275.304688 437.511719 272.957031 437.878906 270.570312 438.011719 C 268.183594 438.144531 265.808594 438.039062 263.445312 437.691406 C 235.925781 437.691406 227.21875 450.832031 225.976562 452.695312 C 221.777344 458.917969 224.1875 459.226562 230.71875 457.671875 C 248.90625 453.394531 267.953125 479.828125 282.179688 487.914062 C 286.007812 490.085938 290.003906 491.882812 294.167969 493.308594 C 298.332031 494.730469 302.589844 495.753906 306.945312 496.378906 C 311.300781 497.003906 315.679688 497.21875 320.074219 497.027344 C 324.472656 496.832031 328.8125 496.230469 333.09375 495.222656 C 342.34375 493.046875 351.128906 488.148438 360.847656 489.859375 C 369.640625 492.402344 378.035156 495.902344 386.03125 500.355469 C 388.730469 501.691406 391.542969 502.726562 394.460938 503.464844 C 397.382812 504.199219 400.347656 504.617188 403.359375 504.71875 C 406.367188 504.816406 409.355469 504.597656 412.316406 504.058594 C 415.28125 503.523438 418.152344 502.675781 420.9375 501.519531 C 422.761719 503.457031 424.710938 505.253906 426.785156 506.917969 C 428.859375 508.582031 431.039062 510.09375 433.320312 511.453125 C 435.605469 512.8125 437.972656 514.007812 440.421875 515.042969 C 442.875 516.074219 445.382812 516.929688 447.953125 517.613281 C 450.519531 518.296875 453.125 518.800781 455.765625 519.121094 C 458.402344 519.445312 461.050781 519.582031 463.710938 519.535156 C 466.367188 519.488281 469.011719 519.261719 471.636719 518.847656 C 474.261719 518.433594 476.847656 517.84375 479.390625 517.070312 C 484.769531 515.300781 489.71875 512.707031 494.238281 509.296875 C 499.214844 505.640625 504.113281 497.402344 510.488281 496.777344 C 512.964844 496.953125 515.371094 497.480469 517.699219 498.351562 C 520.027344 499.226562 522.183594 500.410156 524.167969 501.910156 L 531.941406 506.496094 C 533.191406 507.5 534.496094 508.417969 535.863281 509.253906 C 537.226562 510.089844 538.640625 510.839844 540.097656 511.496094 C 541.558594 512.15625 543.050781 512.71875 544.582031 513.191406 C 546.113281 513.660156 547.667969 514.03125 549.242188 514.308594 C 550.820312 514.582031 552.410156 514.753906 554.007812 514.828125 C 555.605469 514.902344 557.203125 514.875 558.800781 514.75 C 560.394531 514.621094 561.976562 514.394531 563.542969 514.066406 C 565.113281 513.738281 566.652344 513.316406 568.164062 512.792969 C 577.882812 508.75 583.714844 499.578125 593.195312 495.070312 C 604.15625 489.703125 616.515625 501.367188 627.324219 502.84375 C 633.609375 503.015625 639.820312 502.402344 645.953125 501.007812 C 652.089844 499.613281 657.953125 497.476562 663.546875 494.601562 C 668.542969 492.625 673.054688 489.851562 677.074219 486.28125 C 681.890625 481.773438 684.847656 475.632812 692.074219 477.574219 C 697.984375 479.050781 703.035156 482.394531 709.101562 483.328125 C 712.074219 483.78125 715.0625 483.867188 718.0625 483.589844 C 721.058594 483.316406 723.980469 482.683594 726.824219 481.695312 C 737.863281 477.730469 744.9375 467.078125 756.441406 464.359375 C 769.578125 461.25 781.9375 460.316406 792.898438 451.375 C 802.226562 443.601562 810 429.449219 805.257812 417.320312 Z M 569.019531 421.753906 L 566.378906 421.753906 Z M 302.546875 438.78125 L 300.601562 440.257812 C 301.355469 439.667969 302.054688 439.019531 302.699219 438.3125 C 302.683594 438.480469 302.632812 438.636719 302.546875 438.78125 Z M 461.824219 401.226562 C 460.804688 400.261719 459.714844 399.378906 458.558594 398.585938 L 459.570312 399.128906 C 460.394531 399.746094 461.148438 400.449219 461.824219 401.226562 Z M 461.824219 401.226562 " fill-opacity="1" fill-rule="nonzero"/><path fill="#dbaa7c" d="M 398.003906 536.117188 C 394.894531 546.382812 393.261719 555.167969 376.394531 558.433594 C 374.574219 559.078125 372.707031 559.484375 370.78125 559.648438 C 368.859375 559.808594 366.949219 559.722656 365.046875 559.390625 C 363.144531 559.054688 361.320312 558.484375 359.566406 557.675781 C 357.8125 556.871094 356.195312 555.851562 354.707031 554.621094 C 342.96875 544.359375 334.105469 532.542969 319.023438 526.867188 C 303.945312 521.191406 285.675781 526.324219 269.351562 521.734375 C 253.027344 517.148438 244.632812 506.1875 232.117188 497.632812 C 228.828125 495.585938 225.371094 493.886719 221.742188 492.53125 C 218.113281 491.175781 214.386719 490.195312 210.5625 489.589844 C 206.738281 488.980469 202.890625 488.757812 199.019531 488.921875 C 195.148438 489.085938 191.335938 489.632812 187.574219 490.558594 C 183.820312 491.070312 180.164062 491.96875 176.601562 493.257812 C 173.039062 494.546875 169.652344 496.195312 166.445312 498.207031 C 163.234375 500.21875 160.269531 502.546875 157.558594 505.1875 C 154.84375 507.828125 152.4375 510.726562 150.339844 513.882812 C 141.945312 526.710938 136.113281 541.714844 118.15625 540.007812 C 110.777344 538.742188 103.367188 538.535156 95.925781 539.382812 C 92.144531 540.105469 88.507812 541.265625 85.011719 542.871094 C 81.511719 544.472656 78.257812 546.472656 75.246094 548.871094 C 69.503906 554.203125 64.632812 560.242188 60.632812 566.984375 C 59.542969 568.664062 58.285156 570.199219 56.855469 571.601562 C 55.425781 573 53.863281 574.230469 52.164062 575.285156 C 50.460938 576.339844 48.667969 577.195312 46.78125 577.855469 C 44.890625 578.511719 42.953125 578.960938 40.964844 579.191406 C 26.507812 581.835938 9.40625 583.390625 2.644531 598.78125 C 0 604.613281 2.253906 606.558594 8.550781 603.371094 C 21.144531 596.527344 31.871094 603.371094 38.945312 609.511719 C 42.132812 612.425781 45.617188 614.921875 49.402344 616.996094 C 53.1875 619.074219 57.164062 620.675781 61.332031 621.796875 C 64.75 622.714844 68.226562 623.320312 71.753906 623.613281 C 75.28125 623.910156 78.804688 623.886719 82.332031 623.550781 C 85.855469 623.210938 89.320312 622.5625 92.726562 621.601562 C 96.132812 620.640625 99.429688 619.382812 102.609375 617.832031 C 117.613281 611.300781 132.304688 608.8125 145.519531 620.628906 C 157.023438 630.738281 164.796875 643.332031 177.160156 652.660156 C 199 668.988281 229.941406 675.519531 254.195312 660.4375 C 255.746094 659.523438 257.238281 658.519531 258.671875 657.429688 C 260.105469 656.339844 261.46875 655.167969 262.765625 653.917969 C 264.058594 652.667969 265.277344 651.34375 266.417969 649.953125 C 267.558594 648.558594 268.613281 647.101562 269.582031 645.582031 C 270.550781 644.066406 271.429688 642.496094 272.214844 640.875 C 273 639.253906 273.683594 637.59375 274.273438 635.890625 C 274.863281 634.1875 275.351562 632.457031 275.738281 630.699219 C 276.121094 628.941406 276.40625 627.164062 276.582031 625.371094 C 276.726562 623.71875 276.746094 622.0625 276.640625 620.40625 C 276.53125 618.746094 276.300781 617.109375 275.949219 615.484375 C 275.59375 613.863281 275.117188 612.277344 274.523438 610.726562 C 273.929688 609.175781 273.21875 607.679688 272.398438 606.238281 C 271.578125 604.792969 270.652344 603.421875 269.621094 602.117188 C 268.59375 600.816406 267.472656 599.597656 266.257812 598.464844 C 265.042969 597.332031 263.75 596.296875 262.378906 595.359375 C 261.011719 594.421875 259.578125 593.59375 258.082031 592.875 C 257.3125 592.558594 256.535156 592.277344 255.738281 592.035156 C 254.945312 591.792969 254.144531 591.589844 253.332031 591.421875 C 252.519531 591.257812 251.699219 591.128906 250.875 591.042969 C 250.050781 590.953125 249.222656 590.902344 248.390625 590.894531 C 247.5625 590.886719 246.734375 590.914062 245.90625 590.984375 C 245.082031 591.050781 244.257812 591.160156 243.441406 591.308594 C 242.625 591.453125 241.820312 591.640625 241.019531 591.863281 C 240.222656 592.089844 239.433594 592.347656 238.660156 592.648438 C 237.886719 592.945312 237.128906 593.28125 236.386719 593.652344 C 235.644531 594.023438 234.921875 594.425781 234.214844 594.867188 C 233.511719 595.304688 232.832031 595.777344 232.171875 596.28125 C 231.511719 596.785156 230.878906 597.320312 230.273438 597.882812 C 229.664062 598.449219 229.082031 599.039062 228.53125 599.660156 C 227.980469 600.28125 227.457031 600.921875 226.96875 601.59375 C 226.476562 602.261719 226.019531 602.953125 225.59375 603.664062 C 225.167969 604.378906 224.777344 605.109375 224.421875 605.859375 C 224.085938 606.558594 223.785156 607.277344 223.527344 608.011719 C 223.269531 608.746094 223.054688 609.492188 222.878906 610.25 C 222.703125 611.011719 222.570312 611.777344 222.476562 612.546875 C 222.386719 613.320312 222.335938 614.097656 222.332031 614.875 C 222.324219 615.652344 222.363281 616.429688 222.441406 617.203125 C 222.519531 617.980469 222.640625 618.746094 222.804688 619.507812 C 222.96875 620.269531 223.175781 621.019531 223.421875 621.757812 C 223.667969 622.496094 223.953125 623.21875 224.277344 623.925781 C 224.605469 624.632812 224.96875 625.320312 225.367188 625.988281 C 225.769531 626.652344 226.207031 627.296875 226.679688 627.914062 C 227.152344 628.535156 227.65625 629.125 228.191406 629.6875 C 228.730469 630.253906 229.296875 630.785156 229.890625 631.285156 C 230.488281 631.789062 231.109375 632.253906 231.753906 632.6875 C 232.402344 633.121094 233.070312 633.515625 233.761719 633.875 C 234.453125 634.234375 235.160156 634.554688 235.886719 634.835938 C 236.613281 635.117188 237.351562 635.355469 238.101562 635.558594 C 244.011719 636.722656 241.910156 633.457031 236.703125 628.25 C 235.945312 627.402344 235.320312 626.464844 234.832031 625.4375 C 234.339844 624.414062 234 623.339844 233.8125 622.21875 C 233.621094 621.097656 233.59375 619.96875 233.726562 618.839844 C 233.855469 617.710938 234.140625 616.621094 234.578125 615.574219 C 235.019531 614.523438 235.59375 613.554688 236.308594 612.671875 C 237.019531 611.785156 237.84375 611.015625 238.773438 610.363281 C 239.703125 609.707031 240.707031 609.199219 241.78125 608.828125 C 242.859375 608.460938 243.964844 608.246094 245.097656 608.191406 C 255.75 607.492188 260.644531 618.996094 259.011719 628.015625 C 258.976562 628.25 258.976562 628.480469 259.011719 628.714844 C 258.339844 630.128906 257.585938 631.503906 256.757812 632.835938 C 253.96875 636.949219 250.496094 640.371094 246.34375 643.097656 C 244.09375 644.425781 241.722656 645.488281 239.238281 646.289062 C 236.75 647.085938 234.207031 647.605469 231.605469 647.839844 C 229.003906 648.078125 226.410156 648.023438 223.820312 647.683594 C 221.230469 647.339844 218.710938 646.71875 216.257812 645.820312 C 195.269531 638.667969 186.71875 616.199219 172.105469 601.503906 C 168.675781 598.066406 164.839844 595.164062 160.601562 592.796875 C 158.386719 591.046875 156.023438 589.53125 153.511719 588.246094 C 151 586.960938 148.386719 585.933594 145.671875 585.160156 C 142.960938 584.386719 140.199219 583.882812 137.386719 583.648438 C 134.574219 583.417969 131.765625 583.460938 128.960938 583.777344 C 114.503906 585.023438 101.054688 591.550781 86.675781 592.796875 C 79.929688 592.675781 73.242188 591.976562 66.617188 590.695312 C 71.484375 588.703125 75.980469 586.074219 80.101562 582.808594 C 84.226562 579.546875 87.816406 575.773438 90.871094 571.492188 C 91.746094 570.355469 92.730469 569.324219 93.828125 568.398438 C 94.921875 567.472656 96.105469 566.675781 97.371094 566.003906 C 98.640625 565.335938 99.964844 564.808594 101.34375 564.421875 C 102.726562 564.035156 104.132812 563.800781 105.5625 563.71875 C 111.90625 564.476562 118.175781 565.617188 124.375 567.140625 C 127.125 567.46875 129.875 567.480469 132.625 567.175781 C 135.375 566.871094 138.054688 566.253906 140.664062 565.332031 C 143.273438 564.40625 145.742188 563.199219 148.070312 561.707031 C 150.402344 560.210938 152.53125 558.472656 154.460938 556.488281 C 162.011719 548.089844 168.644531 539.019531 174.359375 529.277344 C 175.175781 527.917969 176.089844 526.628906 177.109375 525.410156 C 178.125 524.191406 179.226562 523.0625 180.421875 522.015625 C 181.613281 520.972656 182.878906 520.023438 184.21875 519.175781 C 185.558594 518.328125 186.957031 517.589844 188.410156 516.957031 C 189.867188 516.328125 191.363281 515.8125 192.898438 515.414062 C 194.433594 515.015625 195.988281 514.742188 197.566406 514.585938 C 199.144531 514.429688 200.726562 514.398438 202.308594 514.488281 C 203.890625 514.578125 205.457031 514.792969 207.007812 515.128906 C 213.410156 515.90625 219.421875 517.875 225.042969 521.035156 C 230.640625 524.613281 235.304688 529.511719 240.589844 533.554688 C 242.96875 535.320312 245.46875 536.894531 248.089844 538.277344 C 250.710938 539.660156 253.425781 540.832031 256.226562 541.792969 C 259.03125 542.757812 261.890625 543.5 264.808594 544.019531 C 267.726562 544.542969 270.664062 544.835938 273.628906 544.902344 C 288.164062 545.527344 302.3125 541.5625 316.539062 546.382812 C 319.210938 547.308594 321.792969 548.445312 324.28125 549.796875 C 326.769531 551.148438 329.132812 552.691406 331.367188 554.433594 C 333.601562 556.171875 335.675781 558.078125 337.597656 560.160156 C 339.519531 562.242188 341.257812 564.464844 342.8125 566.828125 C 337.511719 567.195312 332.328125 568.179688 327.265625 569.785156 C 318.6875 572.527344 310.914062 576.753906 303.945312 582.457031 C 285.132812 567.449219 262.667969 553.765625 237.871094 560.609375 C 235.105469 561.257812 232.46875 562.242188 229.957031 563.558594 C 227.441406 564.875 225.128906 566.484375 223.023438 568.382812 C 217.035156 574.136719 213.539062 579.65625 205.066406 577.714844 C 204.25 577.460938 203.457031 577.144531 202.691406 576.761719 C 201.925781 576.382812 201.199219 575.941406 200.507812 575.4375 C 199.816406 574.9375 199.167969 574.378906 198.570312 573.773438 C 197.96875 573.164062 197.421875 572.507812 196.929688 571.8125 C 196.4375 571.113281 196.003906 570.378906 195.632812 569.609375 C 195.261719 568.835938 194.957031 568.042969 194.714844 567.222656 C 194.476562 566.402344 194.304688 565.566406 194.203125 564.71875 C 194.097656 563.871094 194.066406 563.019531 194.105469 562.164062 C 194.726562 552.132812 199.546875 547.625 207.863281 548.402344 C 207.550781 547.929688 207.199219 547.488281 206.800781 547.085938 C 206.40625 546.679688 205.976562 546.3125 205.507812 545.992188 C 205.042969 545.667969 204.550781 545.394531 204.03125 545.164062 C 203.515625 544.9375 202.976562 544.757812 202.425781 544.632812 C 201.871094 544.507812 201.3125 544.4375 200.746094 544.417969 C 200.179688 544.398438 199.617188 544.433594 199.058594 544.523438 C 198.496094 544.613281 197.953125 544.757812 197.417969 544.953125 C 196.886719 545.144531 196.378906 545.390625 195.890625 545.683594 C 194.460938 546.335938 193.121094 547.144531 191.878906 548.113281 C 190.632812 549.078125 189.519531 550.175781 188.535156 551.40625 C 187.550781 552.636719 186.71875 553.960938 186.042969 555.382812 C 185.371094 556.808594 184.871094 558.289062 184.542969 559.832031 C 184.40625 560.71875 184.316406 561.605469 184.273438 562.503906 C 184.226562 563.398438 184.226562 564.292969 184.277344 565.1875 C 184.324219 566.082031 184.414062 566.96875 184.554688 567.855469 C 184.691406 568.742188 184.875 569.617188 185.101562 570.484375 C 185.332031 571.347656 185.601562 572.203125 185.917969 573.039062 C 186.234375 573.878906 186.589844 574.699219 186.992188 575.5 C 187.390625 576.300781 187.832031 577.082031 188.308594 577.835938 C 188.789062 578.59375 189.308594 579.324219 189.859375 580.027344 C 190.414062 580.730469 191.003906 581.40625 191.628906 582.046875 C 192.25 582.691406 192.90625 583.300781 193.59375 583.878906 C 194.277344 584.453125 194.992188 584.992188 195.734375 585.496094 C 196.476562 585.996094 197.238281 586.460938 198.027344 586.886719 C 198.816406 587.308594 199.625 587.691406 200.453125 588.035156 C 201.28125 588.375 202.125 588.671875 202.984375 588.929688 C 203.84375 589.183594 204.710938 589.394531 205.59375 589.558594 C 206.472656 589.726562 207.359375 589.84375 208.253906 589.917969 C 210.03125 589.871094 211.789062 589.640625 213.519531 589.230469 C 215.25 588.820312 216.921875 588.238281 218.535156 587.480469 C 220.148438 586.726562 221.664062 585.8125 223.089844 584.742188 C 224.511719 583.675781 225.8125 582.472656 226.988281 581.132812 C 228.488281 579.660156 230.121094 578.347656 231.886719 577.199219 C 233.648438 576.046875 235.507812 575.082031 237.460938 574.300781 C 239.417969 573.519531 241.429688 572.941406 243.5 572.558594 C 245.570312 572.175781 247.65625 572.003906 249.761719 572.039062 C 269.117188 572.039062 284.589844 585.800781 298.734375 597.382812 C 299.09375 597.726562 299.480469 598.03125 299.898438 598.296875 C 300.3125 598.5625 300.75 598.789062 301.210938 598.972656 C 301.671875 599.15625 302.144531 599.296875 302.628906 599.390625 C 303.113281 599.484375 303.605469 599.53125 304.101562 599.53125 C 304.59375 599.53125 305.085938 599.484375 305.570312 599.390625 C 306.054688 599.296875 306.527344 599.15625 306.988281 598.972656 C 307.449219 598.789062 307.886719 598.5625 308.300781 598.296875 C 308.71875 598.03125 309.105469 597.726562 309.464844 597.382812 C 311.535156 595.269531 313.761719 593.34375 316.152344 591.601562 C 318.542969 589.859375 321.0625 588.328125 323.707031 587.003906 C 326.355469 585.679688 329.089844 584.585938 331.917969 583.71875 C 334.746094 582.851562 337.625 582.222656 340.558594 581.835938 C 352.527344 580.355469 363.878906 583 375.617188 578.179688 C 377.597656 577.566406 379.5 576.765625 381.324219 575.769531 C 383.144531 574.777344 384.851562 573.613281 386.4375 572.277344 C 388.027344 570.941406 389.46875 569.460938 390.761719 567.835938 C 392.054688 566.214844 393.171875 564.476562 394.117188 562.628906 C 402.125 547.390625 400.257812 528.8125 398.003906 536.117188 Z M 153.683594 606.789062 L 153.058594 606.246094 Z M 153.683594 606.789062 " fill-opacity="1" fill-rule="nonzero"/></svg>